<?xml version="1.0" standalone="no"?>
<!DOCTYPE svg PUBLIC "-//W3C//DTD SVG 20010904//EN"
 "http://www.w3.org/TR/2001/REC-SVG-20010904/DTD/svg10.dtd">
<svg version="1.0" xmlns="http://www.w3.org/2000/svg"
 width="663.000000pt" height="2450.000000pt" viewBox="0 0 663.000000 2450.000000"
 preserveAspectRatio="xMidYMid meet">

<g transform="translate(0.000000,2450.000000) scale(0.100000,-0.100000)"
fill="#000000" stroke="none">
<path d="M3140 5524 c-169 -20 -217 -28 -300 -45 -257 -52 -520 -163 -752
-316 -49 -33 -66 -49 -62 -61 5 -14 4 -14 -4 -3 -24 34 -337 -261 -478 -449
-122 -163 -236 -368 -294 -528 -19 -51 -21 -65 -10 -75 10 -9 11 -9 6 1 -4 7
4 44 19 82 27 70 41 92 29 46 -3 -14 -1 -27 7 -31 8 -6 10 -4 4 5 -6 10 -4 12
10 7 9 -4 24 -2 31 4 11 9 14 7 14 -9 0 -12 -5 -24 -10 -27 -6 -4 -8 -10 -5
-15 3 -5 -1 -25 -9 -45 -14 -32 -10 -46 8 -28 11 11 46 14 46 4 0 -5 -6 -12
-12 -14 -10 -4 -9 -6 1 -6 11 -1 11 -4 1 -16 -7 -8 -16 -13 -20 -10 -3 2 -2
-10 3 -28 8 -23 23 -38 53 -53 24 -11 40 -16 37 -11 -3 6 -1 7 6 3 6 -4 9 -11
6 -16 -3 -5 -1 -19 5 -30 9 -16 15 -19 25 -10 20 16 62 2 88 -30 12 -16 48
-40 79 -54 50 -21 254 -86 358 -114 l35 -9 1 131 c1 145 17 223 74 357 47 111
79 153 119 157 37 4 81 -28 81 -59 0 -10 -20 -57 -44 -106 -78 -155 -108 -319
-83 -465 7 -42 11 -48 33 -48 25 0 25 1 17 48 -58 340 179 652 496 652 144 0
260 -48 361 -150 40 -40 77 -90 96 -128 25 -51 32 -59 37 -43 3 12 1 19 -4 15
-5 -3 -9 5 -9 18 0 13 -10 32 -21 42 -12 10 -17 21 -12 25 31 21 19 71 -18 71
-10 0 -21 4 -24 10 -3 6 1 7 9 4 22 -8 20 8 -4 36 -22 26 -26 35 -9 24 8 -4 8
-1 0 14 -6 12 -11 25 -10 29 1 4 0 10 -1 13 -15 38 -8 60 27 86 59 45 81 55
86 41 2 -8 9 -7 21 6 10 9 21 17 26 17 4 0 116 -18 247 -40 222 -37 540 -81
678 -94 33 -3 107 -10 165 -16 58 -6 202 -14 321 -18 l217 -7 -20 28 c-11 15
-28 27 -38 27 -21 0 -50 36 -50 62 0 32 38 60 76 56 26 -3 35 0 40 14 3 10 17
27 32 39 15 13 19 19 9 16 -13 -5 -38 15 -97 73 -43 44 -84 80 -90 80 -5 0
-10 6 -10 13 0 6 -18 25 -40 41 -34 25 -67 68 -40 51 22 -14 8 15 -16 34 -15
12 -22 21 -15 21 6 0 11 5 11 11 0 6 -8 8 -18 5 -13 -5 -26 3 -41 23 -13 16
-41 37 -63 45 -32 13 -38 20 -33 36 4 14 1 22 -12 27 -25 9 -43 35 -38 52 4
10 -1 12 -21 7 -19 -5 -37 1 -72 26 -26 18 -59 39 -74 45 -16 7 -28 17 -28 23
0 6 4 9 9 6 4 -3 6 5 4 18 -6 30 18 39 81 32 32 -4 49 -1 60 9 13 14 26 8 113
-51 126 -86 173 -124 313 -258 104 -100 107 -102 30 -22 -111 115 -240 223
-370 309 -126 83 -343 194 -348 178 -6 -18 -32 -12 -32 8 0 14 -20 26 -87 50
-114 41 -293 86 -424 106 -100 15 -417 28 -489 19z m505 -33 c39 -8 39 -9 8
-10 -18 0 -33 -5 -33 -9 0 -5 12 -7 28 -5 15 3 35 -2 45 -9 16 -12 15 -15 -10
-44 -49 -55 -112 -48 -113 12 0 11 -5 25 -12 32 -9 9 -7 12 9 12 33 0 37 18 6
23 l-28 4 30 1 c17 0 48 -3 70 -7z m-287 -32 c-2 -6 -8 -10 -13 -10 -5 0 -11
4 -13 10 -2 6 4 11 13 11 9 0 15 -5 13 -11z m642 -129 c0 -5 -7 -10 -15 -10
-8 0 -15 5 -15 10 0 6 7 10 15 10 8 0 15 -4 15 -10z m-76 -41 c-3 -5 -10 -7
-15 -3 -5 3 -7 10 -3 15 3 5 10 7 15 3 5 -3 7 -10 3 -15z m116 1 c0 -5 -4 -10
-10 -10 -5 0 -10 5 -10 10 0 6 5 10 10 10 6 0 10 -4 10 -10z m-780 -48 c0 -13
-12 -22 -22 -16 -10 6 -1 24 13 24 5 0 9 -4 9 -8z m1170 -38 c0 -2 -9 0 -20 6
-11 6 -20 13 -20 16 0 2 9 0 20 -6 11 -6 20 -13 20 -16z m-266 -85 c-3 -5 -10
-7 -15 -3 -5 3 -7 10 -3 15 3 5 10 7 15 3 5 -3 7 -10 3 -15z m-2264 -139 c-19
-13 -30 -13 -30 0 0 6 10 10 23 10 18 0 19 -2 7 -10z m320 0 c0 -5 -4 -10 -9
-10 -6 0 -13 5 -16 10 -3 6 1 10 9 10 9 0 16 -4 16 -10z m20 -150 c0 -5 -2
-10 -4 -10 -3 0 -8 5 -11 10 -3 6 -1 10 4 10 6 0 11 -4 11 -10z m-139 -73
c-16 -16 -25 -1 -10 16 8 8 16 11 18 5 2 -5 -2 -15 -8 -21z m-101 -9 c0 -13
-32 -6 -37 9 -3 7 3 9 16 6 12 -3 21 -10 21 -15z m540 12 c0 -5 -5 -10 -11
-10 -5 0 -7 5 -4 10 3 6 8 10 11 10 2 0 4 -4 4 -10z m-690 -50 c0 -5 -2 -10
-4 -10 -3 0 -8 5 -11 10 -3 6 -1 10 4 10 6 0 11 -4 11 -10z m88 -42 c-3 -7
-13 -15 -24 -17 -16 -3 -17 -1 -5 13 16 19 34 21 29 4z m82 -8 c0 -5 -4 -10
-10 -10 -5 0 -10 5 -10 10 0 6 5 10 10 10 6 0 10 -4 10 -10z m1080 -20 c0 -5
-4 -10 -10 -10 -5 0 -10 5 -10 10 0 6 5 10 10 10 6 0 10 -4 10 -10z m-990 -9
c0 -12 -20 -25 -27 -18 -7 7 6 27 18 27 5 0 9 -4 9 -9z m340 -15 c0 -3 -4 -8
-10 -11 -5 -3 -10 -1 -10 4 0 6 5 11 10 11 6 0 10 -2 10 -4z m-339 -29 c-1
-12 -15 -9 -19 4 -3 6 1 10 8 8 6 -3 11 -8 11 -12z m-123 -47 c1 -31 -12 -48
-23 -30 -8 14 2 60 14 60 4 0 8 -13 9 -30z m372 -40 c0 -5 -4 -10 -10 -10 -5
0 -10 5 -10 10 0 6 5 10 10 10 6 0 10 -4 10 -10z m107 -92 c46 -43 16 -118
-47 -118 -34 0 -70 33 -70 66 0 12 9 33 21 48 25 32 64 34 96 4z m183 -14 c0
-8 -5 -12 -10 -9 -6 4 -8 11 -5 16 9 14 15 11 15 -7z m-1150 -54 c0 -5 -4 -10
-10 -10 -5 0 -10 5 -10 10 0 6 5 10 10 10 6 0 10 -4 10 -10z m1635 -58 c-3 -3
-11 0 -18 7 -9 10 -8 11 6 5 10 -3 15 -9 12 -12z m-1155 -26 c0 -7 -7 -19 -15
-26 -8 -7 -15 -18 -15 -26 0 -12 -56 -34 -87 -34 -16 0 -16 1 2 37 19 38 41
57 54 48 6 -3 19 -1 28 4 25 14 33 13 33 -3z m-240 -6 c0 -5 -4 -10 -10 -10
-5 0 -10 5 -10 10 0 6 5 10 10 10 6 0 10 -4 10 -10z m-130 -145 c0 -8 -4 -15
-9 -15 -13 0 -22 16 -14 24 11 11 23 6 23 -9z m-210 -37 c0 -6 -3 -8 -7 -5 -3
4 -12 2 -20 -4 -8 -8 -13 -8 -13 -1 0 10 15 19 33 21 4 1 7 -4 7 -11z m21 -95
c9 -7 20 -13 25 -11 11 4 14 -6 7 -31 -5 -19 -7 -19 -39 -4 -19 9 -34 20 -34
24 0 4 -2 14 -5 22 -8 18 25 19 46 0z m154 -3 c3 -5 2 -10 -4 -10 -5 0 -13 5
-16 10 -3 6 -2 10 4 10 5 0 13 -4 16 -10z m276 -62 c-11 -11 -13 -10 -6 0 4 8
-2 24 -16 40 l-23 27 29 -27 c24 -23 27 -30 16 -40z m-121 -8 c0 -5 -4 -10
-10 -10 -5 0 -10 5 -10 10 0 6 5 10 10 10 6 0 10 -4 10 -10z m128 -45 c-3 -3
-9 2 -12 12 -6 14 -5 15 5 6 7 -7 10 -15 7 -18z m-90 -5 c5 -13 3 -13 -11 -1
-10 8 -24 10 -34 6 -30 -13 -53 -15 -53 -6 0 22 91 23 98 1z m-177 -7 c13 -16
12 -17 -3 -4 -17 13 -22 21 -14 21 2 0 10 -8 17 -17z m98 -30 c2 -1 -9 -7 -24
-13 -34 -13 -40 -8 -24 19 11 16 16 18 29 8 8 -6 17 -12 19 -14z m61 -33 c0
-5 -5 -10 -11 -10 -5 0 -7 5 -4 10 3 6 8 10 11 10 2 0 4 -4 4 -10z"/>
<path d="M4990 4735 c13 -14 26 -25 28 -25 3 0 -5 11 -18 25 -13 14 -26 25
-28 25 -3 0 5 -11 18 -25z"/>
<path d="M5059 4648 c24 -32 45 -58 48 -58 7 0 -59 89 -76 103 -8 7 5 -14 28
-45z"/>
<path d="M5033 4280 c-10 -15 -9 -17 8 -13 20 5 25 18 11 27 -4 2 -13 -4 -19
-14z"/>
<path d="M2653 4156 c-149 -49 -242 -169 -251 -326 -3 -65 0 -81 20 -120 34
-62 112 -101 215 -108 118 -8 190 31 228 122 37 88 -18 196 -99 196 -65 0
-106 -31 -106 -81 0 -20 1 -20 29 -3 36 21 70 10 97 -31 21 -33 7 -71 -39
-102 -88 -60 -219 6 -234 117 -11 80 53 182 142 225 63 30 148 26 214 -10 99
-55 154 -146 154 -257 0 -38 3 -66 6 -61 3 5 22 16 41 25 32 16 36 16 55 0 19
-16 20 -16 4 3 -10 12 -19 49 -23 95 -12 133 -83 243 -194 297 -66 32 -190 42
-259 19z m426 -389 c-2 -1 -13 -9 -24 -17 -19 -14 -19 -14 -6 3 7 9 18 17 24
17 6 0 8 -1 6 -3z"/>
<path d="M1280 4016 c0 -2 13 -6 29 -8 17 -2 28 -1 25 4 -5 8 -54 12 -54 4z"/>
<path d="M3241 3944 c0 -11 3 -14 6 -6 3 7 2 16 -1 19 -3 4 -6 -2 -5 -13z"/>
<path d="M3252 3900 c0 -14 2 -19 5 -12 2 6 2 18 0 25 -3 6 -5 1 -5 -13z"/>
<path d="M3705 3760 c-4 -6 -11 -8 -16 -5 -5 4 -9 -1 -9 -9 0 -14 3 -14 20 -4
11 7 20 16 20 20 0 11 -8 10 -15 -2z"/>
<path d="M5461 3744 c0 -11 3 -14 6 -6 3 7 2 16 -1 19 -3 4 -6 -2 -5 -13z"/>
<path d="M1556 3715 c-11 -8 -15 -15 -9 -15 6 0 16 7 23 15 16 19 11 19 -14 0z"/>
<path d="M3685 3713 c-19 -13 -18 -14 10 -7 37 8 39 10 23 17 -8 2 -23 -2 -33
-10z"/>
<path d="M5130 3707 c0 -9 -6 -20 -13 -24 -8 -4 -20 -21 -28 -38 -13 -27 -19
-30 -59 -29 -36 0 -49 -4 -63 -23 -10 -13 -27 -23 -38 -23 -11 0 -17 -4 -14
-10 3 -5 -1 -10 -9 -10 -8 0 -17 8 -20 18 -4 14 -5 13 -4 -3 1 -27 -30 -95
-43 -95 -5 0 -7 5 -4 10 9 14 -15 12 -44 -4 -15 -8 -20 -16 -12 -20 14 -9 15
-46 1 -46 -5 0 -15 9 -22 20 -7 11 -17 20 -22 20 -4 0 -4 -6 2 -13 6 -7 9 -22
7 -32 -2 -11 -4 -23 -4 -27 -1 -5 -10 -8 -20 -8 -14 0 -21 -8 -23 -27 -2 -16
-8 -27 -15 -26 -6 1 -17 -4 -23 -12 -17 -20 -36 -19 -69 5 -22 17 -32 19 -54
11 -15 -6 -27 -15 -27 -21 0 -5 -6 -10 -14 -10 -8 0 -16 -6 -19 -12 -3 -10 -7
-10 -20 1 -11 8 -17 9 -17 3 0 -6 25 -30 55 -52 75 -55 82 -94 26 -144 -32
-29 -68 -23 -114 21 -47 43 -98 85 -80 64 11 -12 7 -39 -6 -51 -12 -11 -32
-52 -22 -45 6 3 11 1 11 -6 0 -17 -70 -81 -84 -76 -6 2 -17 -3 -23 -12 -9 -11
-15 -13 -20 -5 -10 14 -57 -1 -49 -15 3 -5 -3 -7 -14 -4 -14 4 -22 -1 -29 -18
-5 -13 -10 -18 -10 -11 -1 14 -31 17 -31 2 0 -5 -7 -10 -15 -10 -8 0 -24 -6
-35 -12 -17 -11 -22 -10 -29 0 -6 11 -10 10 -15 -4 -3 -9 -4 -19 -1 -22 3 -3
5 0 5 7 0 8 5 9 18 2 9 -5 90 -7 186 -4 124 4 167 3 162 -6 -4 -6 -16 -11 -27
-11 -11 0 -18 -4 -14 -10 8 -13 -41 -43 -56 -34 -8 4 -9 3 -5 -5 9 -14 -59
-45 -76 -35 -7 4 -8 3 -4 -4 9 -15 1 -15 -25 -1 -11 5 -17 14 -14 19 4 6 -1 7
-11 3 -13 -5 -16 -3 -11 10 6 15 4 16 -16 3 -34 -21 -75 -28 -98 -16 -16 9
-27 7 -55 -9 -56 -33 -62 -25 -16 22 58 59 53 65 -6 8 -26 -25 -46 -50 -43
-55 2 -5 0 -6 -6 -3 -5 3 -33 -3 -62 -13 -31 -12 -77 -20 -119 -21 -50 0 -61
-3 -44 -9 12 -5 22 -12 22 -14 0 -3 -6 -3 -14 0 -8 3 -17 0 -21 -6 -4 -6 -16
-8 -28 -6 -12 3 -6 -2 13 -10 44 -21 163 -30 213 -16 27 8 46 8 62 0 22 -10
45 -46 45 -72 0 -26 -41 -65 -75 -72 -23 -4 -32 -10 -28 -20 3 -8 -1 -14 -10
-14 -8 0 -20 -7 -27 -15 -14 -17 -4 -39 13 -28 18 11 99 13 111 4 13 -11 66
-9 66 2 0 5 5 5 10 2 6 -3 10 3 10 15 0 11 6 20 13 19 20 -4 71 13 89 28 9 8
27 13 40 10 21 -4 21 -4 -3 -6 -15 0 -29 -8 -32 -16 -5 -11 -1 -12 20 -4 42
16 45 20 26 41 -17 19 -17 20 2 17 11 -2 26 -13 33 -24 8 -11 11 -13 9 -4 -4
12 1 14 27 11 29 -5 30 -4 16 13 -14 17 -13 18 2 12 10 -3 20 -1 24 5 5 7 12
5 21 -8 8 -10 17 -19 21 -18 4 0 6 -8 4 -18 -3 -16 1 -19 17 -13 14 4 23 0 31
-15 12 -22 73 -29 86 -9 4 8 9 7 15 -2 13 -20 31 8 26 38 -2 12 -1 20 4 18 4
-3 19 8 32 25 29 34 64 50 108 50 18 0 28 4 24 10 -11 18 0 11 40 -26 l39 -35
11 38 c30 99 103 185 193 226 74 34 197 31 279 -7 34 -15 64 -34 67 -42 7 -17
-6 -18 -22 -2 -9 9 -12 9 -12 0 0 -6 -18 -21 -40 -32 -22 -11 -40 -25 -40 -31
0 -6 -7 -9 -15 -5 -10 3 -15 -1 -15 -14 0 -26 17 -34 23 -10 3 11 11 20 17 20
7 0 10 -7 6 -15 -3 -8 0 -15 7 -16 7 0 4 -4 -7 -8 -13 -5 9 -13 75 -28 84 -18
95 -18 107 -5 10 13 12 14 13 1 1 -8 1 -17 1 -20 -1 -4 8 -5 18 -2 11 3 20 9
20 14 0 5 -6 6 -13 3 -7 -2 -13 4 -14 16 -1 11 2 20 8 20 5 0 9 -4 9 -10 0 -5
4 -10 9 -10 12 0 32 85 24 106 -4 11 -3 15 4 11 12 -7 18 16 48 176 9 49 14
91 11 95 -3 3 -6 -2 -6 -11 0 -10 -4 -17 -9 -17 -4 0 -6 -11 -4 -24 3 -13 0
-32 -6 -43 -10 -17 -10 -17 -11 3 0 12 -7 27 -15 34 -8 7 -15 21 -15 31 0 23
-20 36 -30 19 -4 -7 -13 -9 -19 -6 -16 10 -14 26 3 20 8 -3 17 0 22 7 4 8 3
10 -4 5 -8 -5 -10 -2 -6 9 4 8 17 18 30 21 13 3 22 10 19 14 -3 5 4 11 14 15
12 4 18 12 14 21 -3 7 0 14 5 14 6 0 9 18 7 44 -3 31 1 49 11 57 15 12 15 14
-1 -151 -3 -32 -2 -40 5 -29 5 10 13 89 16 176 7 156 0 249 -15 224 -6 -9 -11
-8 -20 3 -11 13 -16 13 -35 1 -19 -13 -25 -13 -43 0 -12 8 -33 16 -47 17 -29
3 -45 30 -61 103 -7 31 -16 49 -24 47 -7 -1 -22 9 -33 23 -11 14 -26 25 -34
25 -8 0 -26 7 -39 16 -23 15 -25 15 -25 1z m110 -322 c0 -8 -4 -15 -9 -15 -13
0 -22 16 -14 24 11 11 23 6 23 -9z m50 -15 c0 -5 -4 -10 -10 -10 -5 0 -10 5
-10 10 0 6 5 10 10 10 6 0 10 -4 10 -10z m207 -52 c-3 -7 -5 -2 -5 12 0 14 2
19 5 13 2 -7 2 -19 0 -25z m-402 -28 c3 -5 -1 -10 -10 -10 -9 0 -13 5 -10 10
3 6 8 10 10 10 2 0 7 -4 10 -10z m75 -40 c0 -5 -5 -10 -11 -10 -5 0 -7 5 -4
10 3 6 8 10 11 10 2 0 4 -4 4 -10z m250 -11 c0 -5 -7 -9 -15 -9 -15 0 -20 12
-9 23 8 8 24 -1 24 -14z m-162 -24 c-9 -9 -30 14 -23 25 6 9 10 8 17 -4 6 -10
8 -19 6 -21z m-328 -10 c0 -8 -4 -15 -9 -15 -13 0 -22 16 -14 24 11 11 23 6
23 -9z m260 -29 c0 -3 -4 -8 -10 -11 -5 -3 -10 -1 -10 4 0 6 5 11 10 11 6 0
10 -2 10 -4z m70 -11 c0 -8 -4 -15 -9 -15 -13 0 -22 16 -14 24 11 11 23 6 23
-9z m30 -15 c0 -5 -5 -10 -11 -10 -5 0 -7 5 -4 10 3 6 8 10 11 10 2 0 4 -4 4
-10z m153 -11 c-4 -15 -8 -17 -14 -8 -8 14 -3 29 11 29 4 0 6 -9 3 -21z m-328
-18 c3 -5 1 -12 -5 -16 -5 -3 -10 1 -10 9 0 18 6 21 15 7z m235 -56 c0 -17 -2
-18 -24 -9 -23 9 -20 24 4 24 11 0 20 -7 20 -15z m-819 -18 c-13 -13 -26 -3
-16 12 3 6 11 8 17 5 6 -4 6 -10 -1 -17z m119 -17 c0 -5 -4 -10 -10 -10 -5 0
-10 5 -10 10 0 6 5 10 10 10 6 0 10 -4 10 -10z m431 -19 c13 -10 33 -20 44
-22 11 -3 21 -13 23 -24 2 -11 13 -30 25 -42 11 -13 18 -26 14 -29 -9 -10 -39
4 -32 15 3 5 0 13 -6 17 -8 4 -9 3 -5 -4 11 -17 -6 -14 -30 6 -23 18 -74 85
-74 95 0 12 17 7 41 -12z m229 9 c0 -5 -4 -10 -10 -10 -5 0 -10 5 -10 10 0 6
5 10 10 10 6 0 10 -4 10 -10z m44 -56 c4 -9 4 -19 2 -21 -8 -8 -26 8 -26 23 0
19 16 18 24 -2z m71 -14 c-3 -5 -1 -10 4 -10 14 0 14 -37 1 -45 -16 -10 -12
-28 5 -21 10 4 15 -1 15 -14 0 -25 -16 -26 -29 -2 -9 15 -12 15 -21 2 -6 -9
-10 -10 -10 -3 0 6 6 18 13 25 7 7 12 28 11 46 -1 17 3 32 8 32 5 0 6 -4 3
-10z m-35 -10 c0 -5 -4 -10 -10 -10 -5 0 -10 5 -10 10 0 6 5 10 10 10 6 0 10
-4 10 -10z m-850 -21 c0 -12 -29 -24 -37 -16 -3 4 -3 13 0 21 6 16 37 11 37
-5z m800 -18 c0 -5 -7 -14 -15 -21 -16 -14 -18 -10 -9 14 6 17 24 22 24 7z
m-955 -11 c-3 -5 -12 -10 -18 -10 -7 0 -6 4 3 10 19 12 23 12 15 0z m-85 -60
c0 -5 -4 -10 -10 -10 -5 0 -10 5 -10 10 0 6 5 10 10 10 6 0 10 -4 10 -10z
m1000 -10 c0 -5 -4 -10 -10 -10 -5 0 -10 5 -10 10 0 6 5 10 10 10 6 0 10 -4
10 -10z m-870 -10 c0 -5 -4 -10 -10 -10 -5 0 -10 5 -10 10 0 6 5 10 10 10 6 0
10 -4 10 -10z m-115 -18 c0 -18 -20 -15 -23 4 -3 10 1 15 10 12 7 -3 13 -10
13 -16z m1125 8 c0 -5 -4 -10 -10 -10 -5 0 -10 5 -10 10 0 6 5 10 10 10 6 0
10 -4 10 -10z m-120 -30 c0 -5 -2 -10 -4 -10 -3 0 -8 5 -11 10 -3 6 -1 10 4
10 6 0 11 -4 11 -10z m-1015 -20 c3 -5 1 -10 -4 -10 -6 0 -11 5 -11 10 0 6 2
10 4 10 3 0 8 -4 11 -10z m-297 -38 c2 -7 -3 -12 -12 -12 -9 0 -16 7 -16 16 0
17 22 14 28 -4z m312 14 c0 -3 -4 -8 -10 -11 -5 -3 -10 -1 -10 4 0 6 5 11 10
11 6 0 10 -2 10 -4z m224 -11 c-4 -8 -11 -12 -16 -9 -6 4 -5 10 3 15 19 12 19
11 13 -6z m69 -2 c-7 -2 -19 -2 -25 0 -7 3 -2 5 12 5 14 0 19 -2 13 -5z m-853
-23 c0 -11 -4 -20 -9 -20 -14 0 -23 18 -16 30 10 17 25 11 25 -10z m896 -22
c-19 -27 -21 -19 -4 18 7 14 14 21 16 15 2 -6 -4 -21 -12 -33z m-947 8 c-8 -8
-13 -8 -16 2 -4 10 -8 10 -19 1 -9 -7 -14 -8 -14 -1 0 13 20 20 43 14 14 -4
16 -7 6 -16z m561 14 c0 -5 -4 -10 -10 -10 -5 0 -10 5 -10 10 0 6 5 10 10 10
6 0 10 -4 10 -10z m310 -19 c0 -12 -20 -25 -27 -18 -7 7 6 27 18 27 5 0 9 -4
9 -9z m-378 -16 c0 -5 -5 -11 -11 -13 -6 -2 -11 4 -11 13 0 9 5 15 11 13 6 -2
11 -8 11 -13z m1128 -5 c0 -5 -4 -10 -10 -10 -5 0 -10 5 -10 10 0 6 5 10 10
10 6 0 10 -4 10 -10z m-1300 -31 c0 -5 -7 -9 -15 -9 -15 0 -20 12 -9 23 8 8
24 -1 24 -14z m310 -8 c0 -6 -4 -13 -10 -16 -5 -3 -10 1 -10 9 0 9 5 16 10 16
6 0 10 -4 10 -9z m100 -11 c0 -5 -7 -10 -16 -10 -8 0 -12 5 -9 10 3 6 10 10
16 10 5 0 9 -4 9 -10z m-400 -10 c0 -5 -5 -10 -11 -10 -5 0 -7 5 -4 10 3 6 8
10 11 10 2 0 4 -4 4 -10z m464 -5 c-7 -17 -20 -20 -28 -6 -7 10 3 21 20 21 8
0 11 -6 8 -15z m-104 -75 c0 -5 -4 -10 -10 -10 -5 0 -10 5 -10 10 0 6 5 10 10
10 6 0 10 -4 10 -10z"/>
<path d="M1497 3677 l-17 -32 20 24 c17 20 26 41 18 41 -2 0 -11 -15 -21 -33z"/>
<path d="M5472 3690 c0 -14 2 -19 5 -12 2 6 2 18 0 25 -3 6 -5 1 -5 -13z"/>
<path d="M1336 3665 c4 -17 7 -31 8 -31 1 -1 6 4 13 11 9 10 8 17 -8 31 -20
18 -20 18 -13 -11z"/>
<path d="M1545 3670 c3 -5 10 -10 16 -10 5 0 9 5 9 10 0 6 -7 10 -16 10 -8 0
-12 -4 -9 -10z"/>
<path d="M1361 3636 c-6 -8 -23 -13 -37 -11 -13 1 -27 -2 -30 -7 -3 -4 -2 -8
3 -7 23 4 31 -3 25 -23 -3 -13 -9 -26 -14 -29 -6 -3 20 -18 56 -33 69 -27 94
-33 62 -15 -12 8 -15 14 -7 18 7 5 2 12 -14 19 -15 7 -25 8 -25 2 0 -6 -4 -10
-10 -10 -31 0 28 84 65 93 16 4 14 5 -7 6 -14 0 -33 3 -41 6 -7 3 -19 -1 -26
-9z"/>
<path d="M5482 3625 c0 -16 2 -22 5 -12 2 9 2 23 0 30 -3 6 -5 -1 -5 -18z"/>
<path d="M2260 3595 c0 -5 5 -17 10 -25 5 -8 10 -10 10 -5 0 6 -5 17 -10 25
-5 8 -10 11 -10 5z"/>
<path d="M1112 3540 c0 -19 2 -27 5 -17 2 9 2 25 0 35 -3 9 -5 1 -5 -18z"/>
<path d="M5492 3550 c0 -14 2 -19 5 -12 2 6 2 18 0 25 -3 6 -5 1 -5 -13z"/>
<path d="M1456 3517 c-7 -27 1 -35 18 -16 12 12 12 16 1 26 -10 9 -14 7 -19
-10z"/>
<path d="M1536 3501 c-32 -32 -32 -31 44 -60 64 -24 75 -26 40 -6 -16 9 -19
14 -10 15 12 0 15 8 12 36 -3 24 -8 34 -18 30 -7 -3 -16 -1 -19 4 -9 15 -17
12 -49 -19z"/>
<path d="M5491 3504 c0 -11 3 -14 6 -6 3 7 2 16 -1 19 -3 4 -6 -2 -5 -13z"/>
<path d="M2320 3471 c5 -11 15 -23 21 -27 6 -3 3 5 -6 20 -20 30 -30 35 -15 7z"/>
<path d="M1668 3473 c7 -3 16 -2 19 1 4 3 -2 6 -13 5 -11 0 -14 -3 -6 -6z"/>
<path d="M2530 3464 c0 -2 9 -8 20 -14 11 -6 20 -7 20 -2 0 6 -9 12 -20 15
-11 3 -20 3 -20 1z"/>
<path d="M1104 3325 c0 -71 1 -99 3 -62 2 37 2 96 0 130 -2 34 -3 4 -3 -68z"/>
<path d="M2335 3401 c22 -23 54 -52 70 -63 35 -25 30 -20 -50 52 -51 46 -54
48 -20 11z"/>
<path d="M2390 3388 c24 -27 45 -48 47 -48 8 0 0 9 -44 50 l-48 45 45 -47z"/>
<path d="M2147 3389 c10 -17 24 -36 32 -42 8 -7 2 7 -14 31 -32 49 -45 57 -18
11z"/>
<path d="M2460 3325 c14 -17 13 -18 -2 -12 -25 9 -22 0 3 -14 13 -6 19 -7 15
-1 -3 6 -2 12 4 14 6 2 0 9 -12 17 -22 13 -22 13 -8 -4z"/>
<path d="M2235 3280 c27 -27 51 -50 54 -50 3 0 -17 23 -44 50 -27 28 -51 50
-54 50 -3 0 17 -22 44 -50z"/>
<path d="M2300 3226 c0 -2 8 -10 18 -17 15 -13 16 -12 3 4 -13 16 -21 21 -21
13z"/>
<path d="M2370 3175 c0 -7 81 -47 86 -43 2 3 -17 14 -41 26 -25 12 -45 20 -45
17z"/>
<path d="M1112 3105 c0 -16 2 -22 5 -12 2 9 2 23 0 30 -3 6 -5 -1 -5 -18z"/>
<path d="M5452 3041 c-11 -7 -11 -9 2 -14 10 -4 16 -1 16 8 0 17 -1 17 -18 6z"/>
<path d="M1122 3020 c0 -14 2 -19 5 -12 2 6 2 18 0 25 -3 6 -5 1 -5 -13z"/>
<path d="M5434 3009 c-3 -6 1 -18 10 -27 10 -11 16 -12 16 -4 0 7 -5 12 -11
12 -6 0 -9 7 -5 15 6 17 0 20 -10 4z"/>
<path d="M3821 2984 c0 -11 3 -14 6 -6 3 7 2 16 -1 19 -3 4 -6 -2 -5 -13z"/>
<path d="M1131 2954 c0 -11 3 -14 6 -6 3 7 2 16 -1 19 -3 4 -6 -2 -5 -13z"/>
<path d="M3800 2940 c-6 -11 -8 -20 -6 -20 3 0 10 9 16 20 6 11 8 20 6 20 -3
0 -10 -9 -16 -20z"/>
<path d="M1141 2904 c0 -11 3 -14 6 -6 3 7 2 16 -1 19 -3 4 -6 -2 -5 -13z"/>
<path d="M3755 2913 c-26 -6 -44 -23 -24 -23 8 0 24 7 35 15 10 8 17 14 14 14
-3 -1 -14 -3 -25 -6z"/>
<path d="M1151 2854 c0 -11 3 -14 6 -6 3 7 2 16 -1 19 -3 4 -6 -2 -5 -13z"/>
<path d="M4245 2850 c-3 -6 1 -7 9 -4 18 7 21 14 7 14 -6 0 -13 -4 -16 -10z"/>
<path d="M4135 2810 c-16 -7 -17 -9 -3 -9 9 -1 20 4 23 9 7 11 7 11 -20 0z"/>
<path d="M4938 2813 c7 -3 16 -2 19 1 4 3 -2 6 -13 5 -11 0 -14 -3 -6 -6z"/>
<path d="M3467 2759 c12 -13 37 -33 55 -43 42 -24 36 -18 -27 29 -29 22 -41
28 -28 14z"/>
<path d="M3524 2756 c11 -9 24 -16 30 -16 12 0 7 5 -24 19 -24 11 -24 11 -6
-3z"/>
<path d="M3310 2690 c-8 -5 -17 -7 -21 -4 -4 2 -12 -3 -19 -11 -10 -12 -10
-15 1 -15 8 -1 3 -7 -11 -15 -27 -16 -54 -20 -30 -5 8 5 12 11 9 14 -2 3 -11
1 -18 -3 -23 -14 5 -54 33 -47 20 5 23 3 18 -19 -3 -20 -7 -23 -18 -14 -7 6
-18 8 -23 4 -7 -4 -8 1 -4 11 4 11 3 15 -4 11 -17 -11 -45 4 -39 19 3 8 1 14
-5 14 -6 0 -7 5 -4 10 3 6 2 10 -4 10 -5 0 -14 -7 -19 -16 -5 -8 -25 -17 -46
-18 -22 -2 -47 -13 -62 -27 -25 -23 -26 -23 -39 -5 -8 11 -21 16 -30 13 -8 -4
-36 -3 -61 2 -38 7 -44 6 -40 -6 3 -8 6 -26 6 -39 0 -18 4 -23 13 -18 9 6 9 4
-1 -8 -7 -8 -10 -22 -6 -31 7 -19 46 -30 55 -15 9 15 39 2 39 -17 0 -11 7 -14
25 -11 13 3 28 7 33 10 4 2 26 1 48 -4 34 -8 42 -6 64 14 65 62 176 93 267 77
36 -7 59 -8 61 -2 2 6 11 7 20 4 9 -3 -5 9 -33 27 -27 17 -70 52 -95 76 -33
31 -49 41 -60 34z m-183 -106 c-3 -3 -12 -4 -19 -1 -8 3 -5 6 6 6 11 1 17 -2
13 -5z m313 -8 c0 -3 -4 -8 -10 -11 -5 -3 -10 -1 -10 4 0 6 5 11 10 11 6 0 10
-2 10 -4z"/>
<path d="M2946 2613 c-4 -9 1 -10 20 -2 14 5 30 7 35 3 5 -3 9 -1 9 5 0 14
-59 9 -64 -6z"/>
<path d="M2846 2545 c-11 -8 -15 -15 -9 -15 6 0 16 7 23 15 16 19 11 19 -14 0z"/>
<path d="M2807 2513 c-15 -14 -5 -21 30 -21 35 0 36 1 18 14 -20 15 -38 18
-48 7z"/>
<path d="M3615 2510 c19 -8 103 -14 94 -6 -2 2 -29 6 -59 9 -34 3 -47 2 -35
-3z"/>
<path d="M3708 2496 c-25 -18 -22 -24 7 -18 14 2 22 8 20 12 -3 5 7 11 22 13
l28 4 -30 1 c-16 1 -38 -5 -47 -12z"/>
<path d="M2695 2488 c5 -12 18 -18 41 -18 20 0 34 -5 35 -12 0 -7 4 -4 9 7 13
29 12 41 -2 27 -16 -16 -61 -15 -77 1 -10 10 -11 9 -6 -5z"/>
<path d="M4290 2492 c0 -12 19 -26 26 -19 2 2 -2 10 -11 17 -9 8 -15 8 -15 2z"/>
<path d="M3707 2451 c-4 -17 -3 -21 5 -13 5 5 8 16 6 23 -3 8 -7 3 -11 -10z"/>
<path d="M2753 2327 c-8 -18 -5 -24 28 -40 36 -18 37 -18 70 2 46 28 105 27
150 -3 l35 -24 10 44 c8 34 7 44 -2 44 -7 0 -16 -4 -19 -10 -3 -5 -11 -10 -16
-10 -6 0 -8 3 -5 8 9 14 -82 6 -106 -10 -21 -14 -29 -15 -44 -4 -11 7 -35 16
-55 19 -31 4 -38 2 -46 -16z"/>
<path d="M2629 2283 c-13 -16 -12 -17 4 -4 9 7 17 15 17 17 0 8 -8 3 -21 -13z"/>
<path d="M2710 2130 c0 -5 7 -7 15 -4 8 4 15 8 15 10 0 2 -7 4 -15 4 -8 0 -15
-4 -15 -10z"/>
<path d="M2654 2121 c-5 -5 -33 -21 -61 -36 -29 -15 -53 -31 -53 -35 0 -5 25
7 56 25 31 19 61 36 68 38 6 2 8 7 5 10 -3 4 -10 3 -15 -2z"/>
<path d="M2770 2084 c-41 -10 -62 -11 -80 -3 -23 10 -24 9 -9 -6 16 -16 23
-16 105 3 49 11 78 20 64 20 -14 0 -50 -6 -80 -14z"/>
<path d="M3284 2049 c-10 -12 -32 -46 -49 -78 -30 -55 -30 -56 -72 -54 -26 1
-43 -2 -43 -9 0 -7 -7 -5 -17 4 -10 8 -32 22 -50 30 -26 13 -31 13 -26 2 3 -8
0 -14 -6 -14 -7 0 -14 7 -17 15 -4 8 -10 12 -15 9 -5 -3 -9 0 -9 6 0 6 -5 8
-10 5 -14 -9 -40 20 -49 53 -16 55 -35 -84 -36 -251 0 -155 0 -158 24 -176 13
-10 21 -23 17 -29 -4 -6 -1 -20 6 -31 10 -17 9 -23 -7 -41 -25 -28 -62 -22
-89 13 -16 22 -21 46 -24 122 -3 52 -9 95 -14 95 -24 0 -52 -26 -94 -90 -25
-38 -57 -79 -72 -90 -15 -12 -20 -18 -12 -14 8 4 25 16 37 27 21 19 24 19 41
4 10 -10 24 -17 30 -17 7 0 12 -4 12 -8 0 -5 13 -7 29 -4 24 3 36 -3 62 -33
33 -37 34 -37 88 -31 53 6 132 38 159 63 6 6 12 21 12 33 0 16 4 20 15 16 9
-3 15 0 15 9 0 17 21 20 36 5 12 -12 44 -3 44 11 0 4 8 6 18 2 12 -4 10 1 -8
18 -13 13 -28 23 -31 22 -4 -1 -5 7 -2 18 4 14 -3 11 -30 -16 -40 -40 -50 -42
-76 -16 -17 17 -21 18 -32 5 -6 -8 -27 -14 -45 -14 -89 0 -93 165 -7 261 43
48 84 53 109 13 11 -17 24 -24 36 -21 10 3 16 1 13 -3 -3 -5 -6 -26 -7 -49 -1
-22 -5 -38 -9 -35 -12 7 -23 -66 -11 -78 13 -13 67 85 94 172 24 78 53 137 81
168 11 12 18 22 15 22 -3 0 -13 -9 -24 -21z m-104 -449 c0 -5 -4 -10 -10 -10
-5 0 -10 5 -10 10 0 6 5 10 10 10 6 0 10 -4 10 -10z"/>
<path d="M2635 2020 c-4 -22 -11 -40 -16 -40 -4 0 -24 -14 -44 -31 -26 -23
-41 -30 -59 -25 -27 7 -35 -2 -47 -48 l-7 -31 -1 30 c-1 17 -5 26 -9 20 -4 -5
-15 -16 -24 -24 -16 -12 -18 -11 -18 8 0 13 4 19 10 16 6 -4 9 -3 8 2 -3 11
20 53 46 83 19 22 19 23 1 10 -11 -8 -26 -22 -32 -30 -11 -13 -14 -13 -24 0
-9 12 -10 10 -5 -9 6 -29 -9 -52 -30 -44 -8 3 -17 -5 -24 -22 l-10 -26 -24 25
c-22 25 -46 34 -46 19 0 -5 -14 -16 -30 -25 -23 -13 -30 -14 -30 -4 0 8 -10
16 -21 19 -14 4 -20 11 -16 21 4 10 1 13 -9 9 -7 -3 -14 1 -14 8 0 7 -3 9 -6
6 -4 -3 -15 -2 -25 4 -15 8 -17 6 -12 -7 4 -12 3 -15 -5 -10 -8 5 -10 2 -6 -8
7 -19 -7 -21 -25 -3 -11 10 -13 9 -8 -4 4 -13 1 -15 -13 -12 -10 3 -20 13 -23
24 -3 10 -11 19 -19 18 -10 0 -10 -2 0 -6 6 -2 12 -11 12 -18 0 -8 8 -19 18
-24 9 -6 13 -11 8 -11 -6 0 -1 -7 10 -16 10 -8 12 -13 4 -9 -8 4 -4 -3 10 -14
14 -11 31 -21 39 -21 9 0 12 -8 9 -25 -4 -17 -1 -25 9 -25 22 0 73 -33 73 -47
0 -9 7 -10 22 -4 17 6 26 4 34 -8 10 -13 14 -13 28 -2 14 12 16 12 10 -3 -3
-9 -1 -16 5 -16 16 0 56 -48 56 -68 0 -14 81 -68 106 -71 4 -1 -1 20 -9 45
-13 39 -13 56 -3 108 7 33 14 70 14 80 1 11 22 41 48 68 39 40 53 48 83 48 49
0 68 -30 64 -101 -2 -41 -9 -60 -32 -86 -16 -18 -38 -33 -47 -33 -21 0 -38 22
-21 28 19 6 42 57 42 92 0 41 -18 35 -47 -15 -48 -86 -35 -189 22 -163 33 15
89 98 169 249 36 69 66 128 66 131 0 3 -21 -5 -47 -18 -82 -42 -127 -27 -125
41 2 47 -5 44 -13 -5z m-495 -120 c0 -5 -2 -10 -4 -10 -3 0 -8 5 -11 10 -3 6
-1 10 4 10 6 0 11 -4 11 -10z m255 -80 c3 -5 1 -10 -4 -10 -6 0 -11 5 -11 10
0 6 2 10 4 10 3 0 8 -4 11 -10z"/>
<path d="M3358 2023 c-3 -23 -20 -70 -37 -105 -26 -53 -28 -59 -9 -36 46 53
102 60 114 14 8 -31 -30 -116 -67 -152 -34 -32 -35 -37 -13 -59 21 -21 40 -5
67 55 11 25 37 73 58 108 21 34 34 60 29 57 -5 -3 -28 -37 -51 -75 -47 -79
-69 -94 -33 -23 30 57 30 87 3 114 -15 15 -29 20 -49 15 l-29 -5 16 44 c8 24
13 54 11 67 -2 16 -6 9 -10 -19z m34 -302 c-9 -16 -18 -28 -20 -27 -5 6 21 56
29 56 5 0 0 -13 -9 -29z"/>
<path d="M2509 2023 c-13 -16 -12 -17 4 -4 9 7 17 15 17 17 0 8 -8 3 -21 -13z"/>
<path d="M1550 1990 c17 -22 34 -40 37 -40 2 0 -10 18 -27 40 -17 22 -34 40
-37 40 -2 0 10 -18 27 -40z"/>
<path d="M5039 1973 c-13 -16 -12 -17 4 -4 9 7 17 15 17 17 0 8 -8 3 -21 -13z"/>
<path d="M1637 1885 c109 -128 288 -288 428 -383 46 -31 67 -39 88 -35 15 3
27 9 27 14 0 5 5 8 12 7 6 -2 13 4 15 13 4 18 -54 95 -69 91 -5 -1 -7 2 -4 7
4 5 2 12 -4 16 -5 3 -10 1 -10 -4 0 -6 -7 -11 -15 -11 -18 0 -19 12 -2 29 10
10 9 11 -4 6 -10 -4 -33 10 -62 35 -26 23 -47 37 -47 31 0 -6 -6 -11 -12 -11
-7 1 -3 9 8 19 l22 18 -32 15 c-17 9 -48 23 -68 32 -20 9 -46 28 -57 42 -20
25 -20 25 -45 7 -26 -19 -29 -40 -5 -35 8 1 5 -4 -5 -13 -19 -14 -17 -15 20
-15 55 0 72 -13 44 -33 -14 -10 -19 -20 -14 -28 20 -33 -65 42 -157 139 -57
59 -80 80 -52 47z m407 -316 c-3 -5 -10 -7 -15 -3 -5 3 -7 10 -3 15 3 5 10 7
15 3 5 -3 7 -10 3 -15z m100 -4 c-7 -16 -24 -21 -24 -6 0 8 7 13 27 20 1 1 0
-6 -3 -14z"/>
<path d="M4999 1923 c-13 -16 -12 -17 4 -4 9 7 17 15 17 17 0 8 -8 3 -21 -13z"/>
<path d="M3525 1920 c-3 -6 1 -7 9 -4 18 7 21 14 7 14 -6 0 -13 -4 -16 -10z"/>
<path d="M2804 1835 c-21 -54 -20 -62 2 -47 10 6 30 102 22 102 -2 0 -13 -25
-24 -55z"/>
<path d="M4934 1848 l-29 -33 33 29 c17 17 32 31 32 33 0 8 -8 1 -36 -29z"/>
<path d="M3047 1852 c-42 -46 -64 -157 -31 -150 23 4 29 19 61 146 6 27 -8 29
-30 4z"/>
<path d="M3338 1853 c-24 -29 -50 -74 -45 -79 7 -7 67 65 67 81 0 19 -4 19
-22 -2z"/>
<path d="M3556 1851 c-39 -43 -61 -151 -31 -151 18 0 38 45 32 69 -4 13 -5 13
-6 -1 0 -10 -5 -18 -11 -18 -5 0 -7 -6 -4 -14 3 -8 1 -17 -5 -20 -6 -4 -9 4
-7 21 2 16 4 35 5 43 1 8 10 30 22 49 16 27 23 31 30 20 7 -11 9 -11 9 4 0 22
-13 22 -34 -2z"/>
<path d="M3636 1795 c-3 -9 -6 -22 -5 -28 0 -7 5 -1 10 12 5 13 8 26 5 28 -2
2 -6 -3 -10 -12z"/>
<path d="M3659 1758 c-19 -38 -23 -41 -30 -23 -5 13 -8 15 -8 5 0 -8 3 -21 8
-29 7 -11 16 -1 35 37 15 29 24 52 21 52 -2 0 -14 -19 -26 -42z"/>
<path d="M3703 1713 l-11 -37 18 24 c16 21 20 22 37 10 10 -8 7 -2 -6 13 -14
15 -25 27 -25 27 -1 0 -6 -17 -13 -37z"/>
<path d="M3257 1706 c-4 -10 -7 -30 -6 -44 0 -15 3 -21 6 -14 4 10 8 9 19 -5
13 -18 12 -7 -10 71 -1 6 -5 2 -9 -8z"/>
<path d="M4774 1688 l-29 -33 33 29 c30 28 37 36 29 36 -2 0 -16 -15 -33 -32z"/>
<path d="M2062 1684 c-7 -8 -8 -14 -3 -14 10 0 25 19 20 25 -2 1 -10 -3 -17
-11z"/>
<path d="M3430 1661 c0 -7 -9 -27 -21 -44 l-21 -32 24 26 c23 24 26 25 49 10
l24 -15 -25 29 c-14 17 -26 32 -27 34 -2 2 -3 -1 -3 -8z"/>
<path d="M3536 1625 c-11 -8 -15 -15 -10 -15 6 0 15 5 22 12 8 8 15 8 29 -3
16 -13 17 -12 4 4 -16 20 -20 21 -45 2z"/>
<path d="M4699 1623 c-13 -16 -12 -17 4 -4 16 13 21 21 13 21 -2 0 -10 -8 -17
-17z"/>
<path d="M3630 1620 c-9 -6 -10 -10 -3 -10 6 0 15 5 18 10 8 12 4 12 -15 0z"/>
<path d="M4649 1583 c-13 -16 -12 -17 4 -4 9 7 17 15 17 17 0 8 -8 3 -21 -13z"/>
<path d="M4609 1553 c-13 -16 -12 -17 4 -4 16 13 21 21 13 21 -2 0 -10 -8 -17
-17z"/>
<path d="M2146 1451 c14 -13 104 -64 104 -58 0 5 -99 67 -108 67 -3 0 -2 -4 4
-9z"/>
</g>
</svg>
