<?xml version="1.0" standalone="no"?>
<!DOCTYPE svg PUBLIC "-//W3C//DTD SVG 20010904//EN"
 "http://www.w3.org/TR/2001/REC-SVG-20010904/DTD/svg10.dtd">
<svg version="1.0" xmlns="http://www.w3.org/2000/svg"
 width="1024.000000pt" height="764.000000pt" viewBox="0 0 1024.000000 764.000000"
 preserveAspectRatio="xMidYMid meet">

<g transform="translate(0.000000,764.000000) scale(0.100000,-0.100000)"
fill="#000000" stroke="none">
<path d="M1230 5419 l0 -2141 -35 31 c-69 60 -159 60 -221 0 -81 -79 -63 -208
35 -259 68 -34 130 -24 189 33 l32 31 0 -92 0 -92 35 0 35 0 0 92 0 92 33 -31
c85 -83 204 -65 256 40 32 66 24 124 -27 179 -64 68 -154 70 -227 7 l-35 -31
0 2141 0 2141 -35 0 -35 0 0 -2141z m-59 -2176 l50 -46 -47 -48 c-53 -54 -90
-67 -131 -47 -95 46 -66 188 39 188 32 0 47 -8 89 -47z m334 31 c58 -38 50
-136 -15 -169 -45 -23 -79 -12 -134 44 l-47 48 50 46 c40 38 57 47 86 47 20 0
47 -7 60 -16z"/>
<path d="M1050 2090 c-103 -18 -254 -89 -322 -152 -23 -21 -40 -28 -71 -28
-22 0 -37 -3 -34 -6 4 -4 -16 -32 -44 -62 -60 -66 -151 -197 -142 -206 4 -3 1
-6 -5 -6 -18 0 -15 9 28 90 22 41 33 66 24 55 -28 -34 -102 -197 -118 -261
-51 -197 -26 -474 56 -638 129 -257 343 -431 618 -503 136 -36 324 -36 460 0
168 44 288 109 408 222 174 162 265 347 294 597 18 162 -22 364 -104 519 -29
56 -30 57 -56 43 -37 -19 -47 -18 -59 9 -33 73 -175 190 -283 233 -64 27 -80
16 -45 -30 28 -38 48 -83 71 -158 13 -42 23 -58 38 -61 12 -2 -28 -5 -89 -6
-60 -1 -105 -5 -99 -9 6 -4 22 -36 34 -70 13 -35 30 -66 38 -70 10 -3 -4 -15
-39 -33 -30 -15 -49 -28 -42 -29 17 0 73 -181 82 -263 l7 -67 -38 -6 c-34 -6
-38 -10 -44 -43 -11 -61 -52 -137 -98 -179 -41 -38 -146 -100 -146 -87 0 4 12
23 27 43 27 37 27 37 2 15 -43 -38 -156 -28 -207 19 -26 23 -22 8 6 -24 20
-23 2 -24 -44 -2 -92 44 -146 156 -126 262 l9 52 -37 18 -37 17 20 80 c10 44
24 83 29 86 12 8 -16 19 -46 19 -13 0 -25 2 -28 5 -7 8 45 152 81 223 38 76
77 122 104 123 26 1 5 8 -128 44 -49 13 -79 24 -65 24 17 1 42 17 70 47 49 49
183 144 205 144 8 0 17 5 20 10 7 12 -67 12 -135 0z m172 -1450 c-2 -79 1
-110 12 -124 17 -21 31 -16 39 14 3 13 0 20 -9 20 -23 0 -34 34 -23 72 12 45
25 55 67 55 38 0 38 8 4 -110 -18 -62 -44 -107 -62 -107 -30 0 -81 94 -65 120
3 6 1 10 -6 10 -7 0 -27 -18 -46 -40 -42 -48 -78 -54 -93 -14 -19 49 20 134
60 134 10 0 21 -7 24 -16 7 -19 -14 -66 -32 -72 -11 -3 -12 0 -3 16 16 31 13
51 -4 28 -16 -21 -21 -76 -7 -76 14 0 47 42 80 101 37 66 39 73 13 59 -32 -17
-51 -12 -51 13 0 20 5 22 52 22 l52 0 -2 -105z m275 70 c-19 -27 -33 -9 -17
21 8 14 15 18 22 11 7 -7 6 -17 -5 -32z m-114 -46 c-1 -5 -4 -18 -8 -29 -3
-11 2 -5 11 13 25 46 38 40 31 -13 -4 -25 -3 -45 2 -45 9 0 26 33 36 68 4 13
12 21 18 19 12 -4 12 -12 1 -59 -8 -34 11 -38 21 -5 3 12 9 17 11 10 8 -17
-24 -73 -41 -73 -8 0 -15 7 -15 17 0 14 -2 14 -20 -2 -16 -14 -22 -15 -35 -5
-8 7 -12 16 -9 21 3 5 0 9 -5 9 -6 0 -11 -6 -11 -14 0 -25 -18 -28 -30 -5 -9
17 -8 31 5 66 9 24 22 42 29 40 6 -3 10 -8 9 -13z m-216 -250 c-3 -3 -12 -4
-19 -1 -8 3 -5 6 6 6 11 1 17 -2 13 -5z m43 -4 c13 -8 13 -10 -2 -10 -9 0 -20
5 -23 10 -8 13 5 13 25 0z"/>
<path d="M1282 647 c-7 -9 -12 -28 -10 -44 l4 -28 12 29 c7 16 12 36 10 44 -3
13 -5 13 -16 -1z"/>
<path d="M1176 635 c-3 -8 -1 -15 4 -15 6 0 10 7 10 15 0 8 -2 15 -4 15 -2 0
-6 -7 -10 -15z"/>
<path d="M549 1868 c-18 -24 -35 -48 -38 -53 -8 -15 36 34 60 68 33 44 14 31
-22 -15z"/>
<path d="M1367 1834 c-145 -34 -231 -127 -211 -229 3 -19 4 -35 1 -35 -3 0
-22 9 -41 21 -40 23 -44 20 -19 -17 27 -42 20 -108 -22 -188 -20 -39 -31 -65
-24 -58 14 13 159 17 159 4 0 -4 -6 -14 -12 -22 -10 -11 -9 -11 6 0 33 25 76
130 76 183 0 58 11 55 47 -16 16 -33 28 -75 31 -116 4 -50 7 -60 13 -42 8 21
13 22 94 19 64 -2 85 0 85 10 0 22 -40 94 -108 191 -56 81 -66 101 -70 147 -6
68 1 94 33 128 14 16 25 29 23 31 -2 1 -29 -4 -61 -11z"/>
<path d="M1350 1279 c0 -5 5 -7 10 -4 6 3 10 8 10 11 0 2 -4 4 -10 4 -5 0 -10
-5 -10 -11z"/>
</g>
</svg>
