
<svg width="403px" height="181px" viewBox="0 0 403 181" version="1.1" xmlns="http://www.w3.org/2000/svg" xmlns:xlink="http://www.w3.org/1999/xlink">
    <!-- Generator: Sketch 52.6 (67491) - http://www.bohemiancoding.com/sketch -->
    <title>Logo Text</title>
    <desc>Created with Sketch.</desc>
    <defs>
        <polygon id="path-1" points="0.0001544 0.179467123 385.72841 0.179467123 385.72841 101 0.0001544 101"></polygon>
        <polygon id="path-3" points="0.17903707 0.626878422 281.985694 0.626878422 281.985694 107.671126 0.17903707 107.671126"></polygon>
    </defs>
    <g id="Working-File" stroke="none" stroke-width="1" fill="none" fill-rule="evenodd">
        <g id="Intro-Copy-3" transform="translate(-516.000000, -218.000000)">
            <g id="Logo-Text" transform="translate(515.685279, 211.000000)">
                <path d="M354.684862,158.158029 C350.730829,166.149152 344.887649,172.593756 337.597757,177.651612 C336.784209,178.216239 335.888995,178.668147 334.955017,179.065247 C334.55858,179.211057 334.10322,179.389959 333.572914,179.61126 C333.236951,179.732251 332.899954,179.848072 332.559338,179.961825 C325.384708,182.011958 328.681803,169.587584 328.969697,168.549849 C329.992577,165.412345 331.3845,162.453742 333.036923,159.623886 L333.030721,159.620784 C333.030721,159.620784 333.072587,159.555118 333.149083,159.434643 C335.129718,156.075838 337.475777,152.897486 340.027032,149.830818 C340.137125,149.698451 340.257038,149.572806 340.370232,149.443542 C343.42078,145.776053 346.799539,142.524796 349.192117,142.524796 C352.357927,142.524796 353.856841,147.337567 354.560813,151.409394 C354.910215,153.099655 355.066309,154.842656 355.147974,156.601168 C355.161413,156.844185 355.166581,156.98224 355.166581,156.98224 C355.182604,157.368482 354.872484,157.775923 354.684862,158.158029 M403.221769,128.801574 C403.720545,126.14545 402.175113,124.649085 399.472416,125.070487 C398.096516,125.285583 396.633783,126.014117 395.568003,126.92207 C392.793461,129.286057 391.650151,132.801531 392.070881,136.032106 C392.168052,136.770464 392.190277,137.470042 392.16185,138.144802 C392.16185,138.144802 378.503124,162.714856 364.378184,174.723516 C361.407233,177.093707 358.623904,178.846015 357.734376,177.965983 C356.266991,176.513051 372.591717,138.099818 372.591717,138.099818 L364.510502,139.054823 C364.167302,139.881081 361.203071,147.335499 360.060278,150.250669 C360.060278,150.250669 359.102523,139.425554 352.940436,135.739968 C351.465297,135.004712 347.632212,134.132436 340.785793,139.037761 C339.974311,139.661332 330.432431,147.222263 323.726599,162.988379 C323.304319,164.018358 316.405179,181.206899 323.511066,186.437969 C323.653721,186.540864 323.798961,186.640139 323.947301,186.733209 C323.975729,186.749755 324.003123,186.76992 324.032067,186.786466 C324.077552,186.814904 324.125104,186.839723 324.171622,186.866093 C325.169692,187.432788 326.397251,187.798348 327.898749,187.904344 L327.899783,187.904344 C328.237814,187.911583 328.581013,187.895554 328.926281,187.858843 C337.651511,187.858843 346.6543,178.258637 350.341112,173.834694 C348.221957,180.7007 347.451826,188 353.763288,188 L353.764321,187.971562 C353.860976,187.981386 353.962282,187.984488 354.063071,187.987074 C368.457298,187.441061 392.475588,147.741906 392.475588,147.741906 C392.475588,147.741906 392.672514,150.270317 392.857553,153.557768 C392.872542,153.75425 394.040661,168.92575 392.452329,174.805211 C392.451295,174.809347 392.450262,174.813484 392.448711,174.818137 C391.585543,178.559048 389.749115,181.982485 385.91603,181.993861 C385.886568,181.992826 385.857624,181.992826 385.828162,181.991792 C385.686024,181.990758 385.545436,181.985588 385.406916,181.975246 C385.368668,181.973695 385.331453,181.970593 385.294239,181.967491 C380.645537,181.967491 378.272084,172.816608 378.272084,172.816608 L374.427628,181.327373 C375.702739,183.182576 379.370427,187.648918 385.268912,187.85419 C385.420354,187.866082 385.50512,187.866082 385.50512,187.866082 L385.686541,187.866082 C386.712522,187.866082 387.692501,187.745091 388.622345,187.536717 C397.10103,185.425054 399.944832,177.559576 400.891732,172.06946 C400.865889,172.089108 400.835394,172.115995 400.811101,172.133575 C402.261947,164.347723 400.73047,148.417183 399.80166,140.416236 C399.979462,138.912116 400.573859,137.364046 400.990971,135.880091 C401.660314,133.49749 402.771577,131.21313 403.221769,128.801574" id="Fill-1" fill="#FAA919"></path>
                <path d="M194.723234,121.375726 C192.703566,120.223994 189.539626,121.808942 187.656981,124.91566 C185.774336,128.021375 185.885506,131.472559 187.906208,132.624792 C189.927427,133.775521 193.090333,132.190574 194.972461,129.084859 C196.855105,125.978642 196.743936,122.527458 194.723234,121.375726" id="Fill-3" fill="#FAA919"></path>
                <g id="Group" transform="translate(0.000000, 7.000000)">
                    <g id="Group-7" transform="translate(0.314721, 80.000000)">
                        <mask id="mask-2" fill="white">
                            <use xlink:href="#path-1"></use>
                        </mask>
                        <g id="Clip-6"></g>
                        <path d="M322.195384,50.3671541 C313.90153,50.3671541 302.455858,62.4619041 296.945322,68.9078684 C300.958178,58.8346643 303.259253,50.3671541 298.135746,50.3671541 C289.097685,50.3671541 276.32057,64.7256439 271.554757,70.4903735 C275.925821,61.9321694 281.481648,51.9857306 281.529512,51.8368071 L271.869733,52.7612663 C267.956208,57.5556745 249.642309,79.8215367 241.18788,87.0775622 L241.188909,87.0785929 C241.188909,87.0785929 241.147221,87.114149 241.088034,87.1631031 C240.727253,87.4630112 239.378312,88.5559755 238.118922,89.2232969 C237.319645,89.6468786 236.560512,89.8978327 236.124589,89.6499704 C235.464786,89.2763735 235.762778,87.4377612 236.183776,85.8016643 C236.31553,85.175052 236.65521,84.1171286 237.048416,82.9901541 C237.779757,80.889251 238.692776,78.5533684 238.776152,78.3395163 C238.780269,78.3292102 238.783357,78.3235418 238.783357,78.3235418 L238.783357,78.3240571 C239.831733,75.9113939 240.82401,74.0794806 240.82401,74.0794806 C240.82401,74.0794806 248.241386,57.8030214 254.879557,43.2389245 L382.122656,43.2389245 L385.72841,35.4294602 L257.505386,37.5782867 C261.610368,28.5702204 264.513602,21.8923684 264.513602,21.8923684 L254.734936,23.0646898 C254.27328,24.1813582 252.640757,28.5346643 248.489456,37.7292714 L231.30628,38.0085673 L229.246584,43.2389245 L245.930018,43.2389245 C241.538368,52.748899 236.388613,63.1776643 232.05409,69.9657918 C226.832282,77.6654959 222.325861,83.8002153 220.801933,84.88545 C222.270792,76.9105724 220.720616,60.5939194 219.781864,52.3979755 C219.960453,50.8582408 220.562613,49.2721286 220.985154,47.7524908 C221.662456,45.3114857 222.786488,42.9714806 223.242482,40.5016184 C223.746341,37.7813173 222.183298,36.2498276 219.448874,36.6801082 C218.056701,36.9006592 216.577034,37.6473378 215.498808,38.5774653 C212.690786,40.9988888 211.533816,44.5993327 211.960474,47.9086286 C212.057746,48.6640673 212.079877,49.3808582 212.05157,50.072399 C210.77005,53.0343786 207.916224,59.0923173 203.334661,66.0417357 L197.86324,73.5950929 C194.611576,77.6794092 190.79841,81.7977357 186.403672,85.5708071 C179.939458,91.0412969 174.691917,93.2220724 173.20556,92.8154959 C171.705821,92.4058276 172.802576,88.7162357 172.802576,88.7162357 C175.978584,78.4209347 191.459757,50.8422663 191.459757,50.8422663 L182.235386,51.8368071 C182.235386,51.8368071 179.443834,57.8128122 174.494285,65.355348 C174.027482,66.1231541 173.480906,66.9667102 172.783018,67.9658888 C172.352757,68.5821949 171.90757,69.1840724 171.454149,69.7777051 C166.905525,76.0943276 145.796472,97.8917765 147.36672,90.3760367 C147.409952,90.1853735 147.455242,89.9921337 147.508253,89.7901337 C147.518546,89.7540622 147.526266,89.7236592 147.53553,89.689649 C149.381125,82.9138888 161.966784,61.4178939 161.966784,61.4178939 C161.966784,61.4178939 153.246272,60.2357816 146.349738,55.9979041 C145.017781,55.2337051 144.350258,54.3741745 144.531421,53.1616592 C144.822722,52.6355316 145.081085,52.1341388 145.301362,51.663149 L145.301362,51.6636643 C145.301362,51.6636643 146.178869,50.0131388 146.73368,47.476802 C147.564866,43.6042765 146.962706,40.74845 146.54068,39.4132918 C146.492301,39.277251 146.307536,38.7913173 145.974032,38.2992 C145.974032,38.2992 145.081085,36.9990827 143.449592,37.1701643 C143.13513,37.2160265 142.833536,37.2969296 142.545837,37.3999908 C142.072858,37.5865316 140.77384,38.22345 139.380637,39.933751 C137.735248,42.0305316 136.282858,44.5524398 135.474317,47.1774092 C135.472258,47.1810163 134.170666,51.0298378 134.83716,55.3676847 C134.83716,55.3676847 134.873186,55.8397051 135.085229,56.6157561 C135.224189,57.1872306 135.399176,57.7623122 135.622026,58.3317255 C135.598866,58.4131439 135.577765,58.4945622 135.549973,58.5754653 L135.548944,58.5775265 C135.310653,59.2587612 134.916418,59.9168071 134.368813,60.5459959 C134.309626,60.6145316 134.250954,60.684098 134.191768,60.7521184 C133.231914,62.2640265 131.804229,64.2788735 130.079581,66.5524041 C129.151637,67.7741949 128.131568,69.0758582 127.052826,70.4130776 C126.483605,71.0783378 118.524285,81.3839449 114.479005,84.9034857 C113.960221,85.326552 113.45276,85.732098 112.960224,86.1144551 C112.794501,86.2324602 112.64988,86.3437663 112.519154,86.4524959 C112.129037,86.7498276 111.789357,87.0018122 111.486733,87.2177255 C108.409541,88.9316337 107.818704,87.4965061 108.168677,85.2471949 C108.409541,83.6945776 109.096106,81.7601184 109.732749,80.195649 C110.088384,79.3897102 110.442989,78.5781031 110.798109,77.7628888 C110.908762,77.5279092 110.975154,77.3918684 110.975154,77.3918684 L110.955082,77.4006286 C116.29269,65.0822357 121.100192,52.2526592 115.052858,52.2526592 C104.625197,52.2526592 88.8552957,72.8133735 87.5022371,74.5247051 L109.168674,28.4970469 L99.5469811,29.5596082 L90.8897731,48.0055061 L90.8897731,48.0049908 C90.8897731,48.0049908 77.7616557,69.3376337 64.1826904,80.1832816 C56.3762264,86.4257 43.9676131,94.719552 33.1549811,94.719552 L33.1518931,94.719552 L33.1477757,94.719552 C32.8348584,94.719552 32.5348077,94.714399 32.2419624,94.7066694 C4.40467173,94.1625061 7.98829573,68.8048071 13.5775757,51.7522969 C13.5780904,51.7502357 13.5791197,51.7476592 13.5801491,51.745598 C19.1560477,34.9569245 34.0463837,19.8934959 34.0463837,19.8934959 C42.7957171,11.4857612 50.0535464,7.77607245 54.8852371,6.13791429 C56.6453971,5.57365408 69.2207624,2.02474082 74.3411811,13.8927561 C75.3365464,16.6955061 77.9690664,26.2400061 72.4482371,37.0207255 C70.9716584,39.8131694 69.2439224,42.5195571 67.3983277,45.1677153 C64.8481544,48.8263888 61.8625731,52.3649959 58.4415837,55.3862357 C54.0159651,59.2968939 49.2218451,62.8071592 43.2923704,64.7895418 C42.2357597,65.1183071 38.1765837,66.2566184 35.7473571,65.2311592 C35.3078317,65.0240061 34.9388157,64.7684143 34.6356771,64.4690214 C34.6114877,64.4427408 34.5872984,64.421098 34.5631091,64.3968786 C30.0072797,59.6246286 41.7535171,43.7052765 41.7535171,43.7052765 L31.6320824,44.5885112 C31.6320824,44.5885112 26.6439331,51.3555112 26.0798584,58.4193276 C25.9805277,59.6550316 26.0139811,60.8994959 26.2368317,62.1192255 L26.2368317,62.1197408 L26.2368317,62.1202561 C26.3855704,63.0740878 26.6331251,64.0114296 27.0047144,64.8946643 C27.3907144,65.7969653 28.8626611,68.555399 32.8250797,70.0039245 C34.8091197,70.6995878 37.5605277,71.1798531 41.2445117,70.8382051 C42.8770344,70.6867051 44.6943224,70.3692765 46.7040957,69.8426337 C46.8065144,69.8163531 46.9099624,69.7905878 47.0123811,69.7632765 C47.0576717,69.7503939 47.1019331,69.7411184 47.1482531,69.7277204 L47.1384744,69.7261745 C48.2290531,69.4288429 49.3144851,69.0634908 50.3901384,68.6187816 C57.7359757,65.5831133 63.6335411,60.8685776 69.0751117,55.5779296 C78.7709171,45.7299143 82.0508877,34.8301592 83.0380184,30.3877051 C83.3066744,29.0973786 83.5295251,27.7658276 83.6926744,26.4157255 C83.8676611,24.9357663 86.2047624,2.0319551 62.8234557,0.222715306 C61.5759037,0.161393878 60.3911411,0.169638776 59.3123997,0.220138776 C59.2701971,0.219108163 59.2279944,0.218592857 59.1847624,0.218592857 L59.2058637,0.225291837 C58.1363864,0.253633673 57.0705117,0.351026531 56.0092691,0.513347959 C54.6659891,0.689582653 53.7725277,0.876123469 53.5573971,0.914771429 L53.5573971,0.915286735 C41.2326744,3.30424592 30.4658477,11.5656337 22.1740531,20.2516337 C15.6079357,27.3381235 2.9893384,43.6027306 0.231239733,66.3437051 C0.105661067,67.898899 0.0243437333,69.4942867 0.0001544,71.1324449 C0.521511733,85.3018173 6.66354373,100.970731 31.2903437,100.970731 L31.2872557,100.968154 C39.1065864,101.307226 46.4730104,98.8687969 53.4961517,95.4121235 C57.9984557,93.1957918 65.9685837,87.3001745 69.6577144,84.1727816 C69.6577144,84.1727816 73.3972824,80.8062867 77.5516717,76.6668327 L70.6402131,91.5200163 L66.7982264,100.635782 L76.6921784,100.635782 C76.6921784,100.635782 78.6283544,95.9614398 81.7745117,90.1858888 C83.8614851,86.3551031 86.4790797,82.0404449 89.4203997,78.2797408 C96.0729811,70.5197459 104.360658,62.8576592 107.388442,61.9002204 C109.686429,61.1736388 106.62056,69.9462102 102.78372,79.3242663 C102.78269,79.3268429 102.779602,79.3350878 102.777544,79.3392102 C102.518152,79.9720061 102.256701,80.6073786 101.991648,81.2432663 L99.7137331,86.6029653 C99.1898024,87.922149 98.7317491,89.1480622 98.4682397,90.0117153 C97.3925864,93.8378633 96.8197624,98.0757408 98.8259331,99.7360571 L98.8207864,99.7370878 C98.8207864,99.7370878 99.6756477,100.630629 101.74924,100.635782 L101.750269,100.635782 C101.927314,100.636297 102.115168,100.627537 102.310226,100.614139 C102.389485,100.60847 102.469773,100.600226 102.550576,100.593011 C102.602557,100.587858 102.651965,100.585282 102.704976,100.579098 C102.753354,100.574976 102.804821,100.564669 102.852685,100.558486 C102.957677,100.545088 103.063184,100.53169 103.16869,100.514169 C103.235082,100.503863 103.301989,100.490981 103.36941,100.478098 C112.736858,98.7791337 126.928277,80.2518173 133.858264,70.6619704 C137.058461,66.3205163 139.026032,63.1426235 139.026032,63.1426235 C139.15161,63.2534143 139.284909,63.3642051 139.418722,63.4657204 C139.452176,63.4966388 139.485114,63.5275571 139.518568,63.5584755 C141.03529,64.8070622 146.32452,67.9828939 151.158784,69.1232663 C150.53861,70.5717918 143.227256,84.4922714 141.138224,90.6161694 C140.283877,93.5492918 139.758917,97.680501 142.658034,99.6391796 C143.125352,99.9339347 144.987416,100.85994 148.111442,99.3537 C155.221048,95.6970878 165.512322,84.1702051 165.512322,84.1702051 C165.26837,84.8133071 165.025962,85.4785673 164.795906,86.1577408 C164.679077,86.5344296 164.541661,86.9549194 164.390864,87.4099347 C163.134048,91.4648786 162.41969,95.7625316 163.792821,98.3189653 C164.103165,98.8734347 165.244181,100.463669 168.120138,100.502833 C168.183442,100.502833 168.245717,100.49871 168.309021,100.49768 C168.389309,100.496649 168.469082,100.488919 168.54937,100.486858 C188.295586,100.486858 205.46641,74.2474704 212.503962,61.7925214 C212.575501,62.8463224 212.667112,64.2634143 212.75512,65.858802 C212.77056,66.0602867 213.952749,81.5998582 212.346474,87.6222408 C212.344416,87.6268786 212.343386,87.6304857 212.342357,87.6351235 C211.467424,91.4669398 209.611021,94.973598 205.731978,94.98545 C205.702642,94.9844194 205.673821,94.9839041 205.643456,94.9833888 C205.499864,94.9813276 205.356786,94.9761745 205.217312,94.9663837 C205.179226,94.9643224 205.141141,94.9612306 205.10357,94.9581388 C204.803005,94.9318582 204.514792,94.8829041 204.233269,94.8210673 C199.726848,93.6889398 198.246152,86.0010878 198.246152,86.0010878 L193.595109,93.4828173 C193.595109,93.4828173 197.535397,100.721838 205.077322,100.98722 C205.231208,101.000103 205.316642,101.000103 205.316642,101.000103 L205.500893,101.000103 C211.163256,101.000103 215.486456,97.3527663 217.506008,95.2549551 C221.564154,90.6486337 225.181746,85.6408888 228.960429,80.7825827 C226.928525,85.9572867 225.48437,90.8975265 225.464298,94.5185827 C225.464298,94.5185827 225.463269,94.5886643 225.467386,94.7102765 C225.50856,95.7919041 226.002125,101.07843 231.78389,99.8391184 C231.968141,99.7968633 232.150848,99.7530622 232.332525,99.7035929 C232.381933,99.6907102 232.429282,99.6809194 232.47972,99.6664908 C240.744237,97.3574041 248.116322,88.1664041 248.116322,88.1664041 L263.849168,70.5104704 L261.679848,75.1106082 L260.95108,76.6554959 L260.944904,76.6678633 L260.943874,76.6688939 L249.336082,100.328659 L258.560453,100.328659 C258.560453,100.328659 266.943858,82.0662102 277.771416,69.9869194 C283.02256,64.5087 288.11776,60.0951031 290.37869,59.3659449 C295.37456,57.753552 275.915528,100.328659 275.915528,100.328659 L284.987557,100.328659 C292.111573,80.9665469 300.326168,71.5879755 300.41572,71.4854296 C306.144989,65.3290673 311.974618,60.1610622 314.438328,59.3659449 C319.435226,57.753552 299.976194,100.328659 299.976194,100.328659 L310.650381,100.328659 C310.255632,91.5998888 333.503125,50.3671541 322.195384,50.3671541" id="Fill-5" fill="#FAA919" mask="url(#mask-2)"></path>
                    </g>
                    <path d="M325.919167,67.981956 C322.029316,75.6008789 316.280736,81.7456374 309.108262,86.5678776 C308.307032,87.1058599 307.426554,87.537071 306.507995,87.9151545 C306.11793,88.054937 305.669714,88.225152 305.148426,88.4355995 C304.818568,88.5516551 304.486138,88.6625527 304.151134,88.7713871 C297.093415,90.7247322 300.3359,78.8793214 300.620473,77.88898 C301.625484,74.8988713 302.995346,72.0779459 304.621477,69.3802973 L304.615816,69.3772025 C304.615816,69.3772025 304.655955,69.3137588 304.731087,69.1997664 C306.679871,65.9971469 308.987846,62.9668056 311.498572,60.0422038 C311.607152,59.9163479 311.723451,59.7966817 311.836149,59.6739206 C314.837287,56.1772936 318.161079,53.0773188 320.514853,53.0773188 C323.629718,53.0773188 325.104043,57.6659004 325.797722,61.5483479 C326.140444,63.1592 326.294824,64.8206008 326.375616,66.4979914 C326.387451,66.7295869 326.392597,66.8606008 326.392597,66.8606008 C326.40855,67.2283681 326.103908,67.618315 325.919167,67.981956 M189.903568,67.6967171 C190.920415,66.1848991 192.045327,64.7685047 193.324619,63.462492 C196.274298,60.2660622 199.434448,57.8361153 202.251875,56.1076602 C203.603725,55.1915944 205.029678,54.4019004 206.589426,53.8376121 C206.623904,53.8226539 206.659926,53.806664 206.693889,53.7922215 C212.601995,51.295736 220.04978,54.9656728 207.250685,66.2973441 C199.125689,73.4917613 192.471415,75.6060369 188.691174,76.1935363 L188.687057,76.1935363 C187.775703,76.3183606 186.877214,76.3848991 185.994678,76.4050154 C185.535141,76.3967626 185.289163,76.3647828 185.289163,76.3647828 C186.530375,73.1116147 188.122543,70.2293087 189.903568,67.6967171 M328.919276,86.8670432 C326.448689,84.4979611 357.300415,22.393243 357.300415,22.393243 L347.129375,23.4037006 C347.044981,23.5682417 332.331579,57.6638372 331.207696,60.4434984 C331.207696,60.4434984 330.264951,50.1217689 324.202466,46.6076046 C322.751298,45.9071444 318.98032,45.0767019 312.245254,49.7524541 C311.548488,50.2713517 304.321981,55.820358 298.108718,67.1979358 C297.628083,68.0784111 297.155167,68.9986033 296.690484,69.9502594 L296.469207,70.1313062 C294.215265,73.2761558 283.396346,87.9940723 277.142944,89.8189826 C277.128021,89.8236248 277.111554,89.8287828 277.097659,89.8329092 C276.914462,89.8850053 276.737955,89.9205957 276.562992,89.9494807 C276.503813,89.9577335 276.44309,89.9685654 276.386999,89.9737234 C276.379795,89.974755 276.373105,89.9742392 276.3659,89.9752708 C273.56597,90.2017082 274.541649,85.9623252 274.556572,85.8978498 C276.38597,79.1955085 287.398893,60.6286716 287.398893,60.6286716 C287.398893,60.6286716 277.617404,60.2939155 270.160357,55.4443378 C268.82909,54.6881709 268.161656,53.8365805 268.34228,52.6357917 C269.093079,51.2910938 269.634951,50.1001052 269.836159,49.1974503 L269.836159,49.1964187 C269.876298,49.101511 269.911291,49.0060875 269.948342,48.910664 C271.846181,42.5807322 270.110441,37.5052329 267.454083,37.5052329 C265.042674,37.5052329 263.198353,39.5529699 262.765061,40.0770255 C261.29897,42.0417183 260.024309,44.3344617 259.286889,46.7081861 C259.284831,46.7123125 257.982897,50.5235793 258.649302,54.8202164 C258.649302,54.8202164 258.685838,55.2885654 258.897853,56.0571115 C259.020327,56.557956 259.17728,57.0598321 259.365108,57.559645 C258.761999,58.8460571 257.974149,60.1747651 257.368981,61.1377689 C252.406192,68.7773239 239.274667,87.8604794 231.015875,89.4042771 C229.109287,89.6993163 228.786634,88.525865 228.842725,87.5169547 C229.888389,79.4255565 248.256984,47.1301128 248.256984,47.1301128 L238.907758,47.9172278 C238.907758,47.9172278 236.498408,52.9875692 232.230327,59.5852025 C231.540765,60.8726463 230.75343,62.2013542 229.457156,64.0628865 C227.963276,66.2050154 226.323251,68.2047828 224.565382,70.1044845 C217.218459,79.003114 207.471962,87.558219 196.330904,89.2258094 C186.128473,90.7309219 184.802353,81.7446058 184.802353,81.7446058 C184.798751,81.7322265 184.793605,81.7203631 184.788459,81.7079838 C195.760729,81.6388662 203.406634,78.2386943 208.651937,74.1272303 C222.071638,64.4662442 219.501732,54.1790736 219.501732,54.1790736 C218.56928,48.9369699 213.415061,48.0157461 210.78855,47.8924693 C210.669163,47.8878271 210.548747,47.8811216 210.428846,47.8790584 C210.334674,47.8764794 210.242046,47.8754478 210.157652,47.874932 C209.85301,47.8759636 209.549397,47.882669 209.248871,47.9027853 C204.43686,48.2282569 199.906849,49.4981633 195.562094,52.1215363 C189.372503,55.8605906 184.7864,60.8143606 181.130178,66.5877411 C180.535816,67.5708612 178.590119,70.9581381 177.277378,75.1598675 C176.460711,74.9148612 175.705795,74.6518018 175.005941,74.3861633 C174.091499,73.9889952 173.420977,73.5675843 172.930565,73.1668056 C175.023951,67.1509977 177.148729,61.6896779 179.286886,56.7524137 C179.782444,55.2834073 182.929214,48.5686867 184.015532,46.684975 C191.642911,31.7767272 199.281612,22.9889952 206.172601,18.3797815 C207.255831,17.5173593 208.475944,16.754487 209.74443,16.1762721 C210.048043,16.0447424 210.677397,15.7847777 211.567652,15.491286 C211.676232,15.4608536 211.785842,15.4304212 211.894422,15.3994731 C211.997857,15.3607879 212.099232,15.3288081 212.202152,15.2921861 C216.525809,13.9872051 225.366612,12.5042721 233.125729,18.6067348 L241.972192,12.7807424 C239.467641,10.5163681 229.924411,3.09706094 214.817342,5.72507611 C203.640776,8.64451985 194.763951,15.6707853 187.777762,25.2286109 C186.715116,26.6826589 185.736349,28.1991191 184.813674,29.7583909 C168.666087,53.9980268 160.743327,87.9043226 160.743327,87.9043226 C150.036076,84.3220723 150.163696,70.3649649 153.313554,56.563114 C153.839988,54.4978397 154.368995,52.4330812 154.916528,50.3750281 C156.160827,46.0417689 157.954203,41.1029573 159.638484,36.7820774 L160.11809,35.5946994 L151.371973,36.7820774 C149.216835,42.5601001 147.050889,48.3324491 144.725419,54.0398068 C140.957014,62.60987 131.385995,80.6046817 115.090718,87.4251418 L115.085572,87.4261735 C132.844368,54.4715338 135.658192,33.9606362 134.753014,22.3715793 C134.751984,22.3246412 134.753014,22.2787348 134.751984,22.2317967 C134.681484,19.5671595 134.148875,16.6038726 133.072335,13.7473568 C132.136795,11.0512556 131.193021,9.84891934 131.193021,9.84891934 L131.193021,9.85098255 C131.059225,9.62970316 130.921313,9.41048698 130.780827,9.19384981 C130.598659,8.90964248 130.409802,8.64555145 130.221973,8.37888142 C128.47697,5.95306094 126.189579,3.86560708 123.281068,2.47190796 C116.997305,-0.385123641 110.37082,1.48878786 108.164736,2.26868167 C108.080342,2.29962984 107.994919,2.32903059 107.911554,2.35997876 C107.888397,2.36874741 107.864211,2.37803186 107.843112,2.3852531 C100.932054,5.01326827 96.3227945,9.65652491 96.3227945,9.65652491 C76.566842,29.3591595 67.5634259,73.2777032 84.1515099,73.2777032 C84.4489478,73.2777032 84.7432982,73.2689345 85.0366194,73.2539762 C93.2912945,72.8712506 99.8513967,67.1901987 104.798747,60.3429168 C112.701437,49.4068662 116.488368,35.5054655 116.488368,35.5054655 L116.809477,34.1731469 L106.908087,35.5054655 C106.908087,35.5054655 103.451014,53.6782291 91.7454405,64.5173087 L91.7485281,64.5157613 C89.5836121,66.5052126 87.5735902,67.7926564 85.9865683,68.0036197 C85.7663201,68.0165148 85.5465865,68.0252834 85.3222215,68.0252834 C82.144061,67.7864668 81.1663237,62.1776273 85.1904843,47.3219914 C91.6188493,23.5950635 101.240813,13.7066083 107.437094,9.65652491 C107.556481,9.57812288 107.671236,9.51416334 107.788565,9.44091934 C108.141579,9.24078786 108.51209,9.0256981 108.906273,8.79100784 C109.355517,8.54961214 109.790868,8.34122781 110.212838,8.15708622 C111.0892,7.79911909 117.943138,5.25260076 122.082054,11.2194073 C122.106754,11.2570609 122.13197,11.2957461 122.157185,11.3333997 C122.213276,11.4174756 122.268853,11.5077411 122.323915,11.5949118 C122.454623,11.8032961 122.579156,12.012712 122.698028,12.2216121 C122.76647,12.344889 122.835426,12.465071 122.902838,12.5940217 C122.917247,12.6203277 122.931141,12.6461178 122.945035,12.6724238 C122.947094,12.6755186 122.948123,12.6780976 122.950181,12.682224 C123.924316,14.5241558 124.443032,16.2520951 124.622627,16.9190281 C125.34255,19.7574908 125.824729,22.727999 126.00947,25.6954124 L125.901919,25.5597563 C125.901919,25.5597563 126.276032,29.0331722 125.429517,35.6235843 C125.014751,37.7259965 124.702904,39.7386589 124.430681,41.7028359 C122.139174,53.3109775 116.575849,70.8802518 103.319276,93.4388865 C102.525251,94.7913214 101.707039,96.1587145 100.855893,97.546224 C100.855893,97.546224 107.276024,99.207109 117.560791,94.0949876 C118.981083,93.3898852 120.472904,92.5578953 122.033681,91.5711646 C123.843524,90.4477461 125.559196,89.2201355 127.17555,87.9342392 C127.185842,87.9254705 127.196649,87.9177335 127.20797,87.9094807 L127.205911,87.9099965 C134.972747,81.7182999 140.407422,74.1968637 142.829638,70.4887575 C142.626371,76.5762619 143.585583,89.7539914 154.905722,95.1575413 C157.549729,96.5579459 160.830295,97.4291368 164.885846,97.5090862 C165.107123,97.5441608 165.313992,97.5544769 165.498218,97.5209497 C167.422816,90.3471646 169.394758,83.7454048 171.400149,77.6749219 C173.413258,79.1779712 176.428291,80.0176981 176.428291,80.0176981 C176.2312,84.0806766 177.035517,90.6148662 183.307959,94.4710078 C183.982597,94.8790078 187.448933,96.8024364 192.508466,96.7678776 L192.505378,96.7709724 C192.532652,96.7709724 192.559926,96.7689092 192.586685,96.7689092 C192.761649,96.766846 192.941758,96.7575616 193.120838,96.7503403 C205.929196,96.4021735 217.755185,85.3284035 221.941959,80.9445957 C221.782433,81.3804491 221.623422,81.8209446 221.470587,82.2712405 C221.354287,82.6482923 221.216375,83.0691874 221.065597,83.5236096 C220.602459,85.0215009 220.213422,86.5524035 219.975163,88.0167676 C219.760061,89.3774554 218.905827,96.7797411 225.681032,96.5868308 C225.778291,96.581157 225.877094,96.5775464 225.975382,96.570841 L225.95943,96.5806412 C226.225992,96.5651671 226.467853,96.5594933 226.695305,96.5600091 C245.167335,95.6913972 262.837619,62.5216678 262.837619,62.5216678 C262.963181,62.6305021 263.096977,62.7413997 263.230773,62.8409497 C265.773404,65.1826943 269.543353,67.566219 275.65524,68.8964743 C274.029108,71.6823252 271.165882,76.7072759 269.574743,80.1848182 L269.573714,80.182755 C269.573714,80.182755 266.853032,85.267023 266.919415,90.1413593 C266.920444,90.5870129 266.948232,91.0192556 267.004838,91.4365401 C267.008441,91.4705831 267.015645,91.504626 267.019762,91.5391848 C267.039831,91.6707145 267.054754,91.8043075 267.07997,91.9322265 C267.080999,91.9368688 267.080999,91.941511 267.082028,91.946669 L267.083057,91.9446058 C267.323375,93.1402367 267.827681,94.1888637 268.673167,95.0193062 C269.201659,95.5201507 270.548364,96.5409244 272.660276,96.5275135 C280.828499,96.5275135 288.265992,88.5155489 292.478495,82.8994882 C291.721521,87.5680192 291.904203,92.5589269 295.248065,94.9445148 C295.390094,95.0425173 295.532638,95.1369092 295.67724,95.2256273 C295.706572,95.2431646 295.733846,95.2612177 295.761634,95.2772076 C295.806919,95.3045451 295.853232,95.3277563 295.898517,95.3525148 C296.533532,95.7022291 297.274554,95.9611621 298.108718,96.1355034 C298.566196,96.2314427 299.043229,96.3077815 299.566061,96.3438877 L299.56709,96.3438877 C299.883568,96.3500774 300.204163,96.3351191 300.526816,96.3036551 C309.331597,95.7352405 317.520919,87.5272708 321.820389,82.3852329 C319.607101,89.0834478 318.630393,96.434669 325.012444,96.434669 L325.013473,96.4062999 C325.134404,96.4197107 325.260995,96.4238372 325.388616,96.4259004 L325.381411,96.4336374 C325.432871,96.4336374 325.485875,96.4274478 325.536305,96.4264162 C325.617612,96.4259004 325.700977,96.4228056 325.785371,96.4166159 C333.059222,96.1112607 342.164014,87.6974857 345.274762,84.6016374 L344.134926,75.2346589 C339.658433,79.9331064 331.051258,88.9111697 328.919276,86.8670432" id="Fill-10" fill="#FAA919"></path>
                </g>
                <path d="M243.905609,48.6245332 C245.926206,49.7757637 249.089982,48.1908161 250.97253,45.0845997 C252.855078,41.9783832 252.743914,38.5271987 250.723316,37.3754668 C248.702201,36.2242363 245.538425,37.8091839 243.657429,40.9154003 C241.773847,44.0211154 241.886045,47.4722999 243.905609,48.6245332" id="Fill-8" fill="#FAA919"></path>
                <g id="Group-12" transform="translate(75.314721, 0.000000)">
                    <mask id="mask-4" fill="white">
                        <use xlink:href="#path-3"></use>
                    </mask>
                    <g id="Clip-11"></g>
                </g>
            </g>
        </g>
    </g>
</svg>
