<?xml version="1.0" encoding="UTF-8"?>
<svg width="183px" height="27px" viewBox="0 0 183 27" version="1.1" xmlns="http://www.w3.org/2000/svg" xmlns:xlink="http://www.w3.org/1999/xlink">
    <!-- Generator: Sketch 52.6 (67491) - http://www.bohemiancoding.com/sketch -->
    <title>Logo Text</title>
    <desc>Created with Sketch.</desc>
    <defs>
        <polygon id="path-1" points="4.06666667e-05 0.0469195092 101.595134 0.0469195092 101.595134 26.4052288 4.06666667e-05 26.4052288"></polygon>
        <polygon id="path-3" points="-8.52651283e-14 -1.42108547e-13 74.115817 -1.42108547e-13 74.115817 28.0825959 -8.52651283e-14 28.0825959"></polygon>
    </defs>
    <g id="Working-File" stroke="none" stroke-width="1" fill="none" fill-rule="evenodd">
        <g id="Mobile-Card-02" transform="translate(-97.000000, -24.000000)">
            <g id="Logo-Text" transform="translate(97.000000, 22.000000)">
                <g id="Group-4" transform="translate(77.000000, 2.000000)">
                    <path d="M93.1387917,17.9386319 C92.1066147,20.0526856 90.5812864,21.7576074 88.6783027,23.0956645 C88.4659306,23.2450367 88.2322403,23.3645891 87.9884306,23.4696421 C87.8849431,23.5082162 87.766074,23.5555447 87.6276409,23.6140899 C87.5399396,23.6460982 87.4519684,23.6767386 87.3630528,23.7068319 C85.4901574,24.2491951 86.3508446,20.9623237 86.4259979,20.6877908 C86.6930147,19.8577632 87.056368,19.075064 87.4877236,18.326425 L87.4861045,18.3256043 C87.4861045,18.3256043 87.4970334,18.3082322 87.5170023,18.2763607 C88.0340353,17.3877879 88.6464604,16.5469539 89.3124507,15.7356662 C89.3411897,15.7006485 89.3724924,15.6674091 89.402041,15.6332122 C90.1983689,14.6629771 91.0803743,13.8028561 91.7049427,13.8028561 C92.5313589,13.8028561 92.9226417,15.0760759 93.1064097,16.153279 C93.1976191,16.6004379 93.2383665,17.0615492 93.2596846,17.5267641 C93.2631927,17.5910544 93.2645419,17.6275767 93.2645419,17.6275767 C93.2687246,17.7297571 93.1877696,17.8375458 93.1387917,17.9386319 M105.809069,10.1723741 C105.939271,9.46969571 105.535845,9.07383214 104.830322,9.1853141 C104.471151,9.24221778 104.089313,9.43495163 103.811098,9.67515082 C103.08682,10.3005441 102.788365,11.2305636 102.898194,12.0852131 C102.92356,12.2805459 102.929362,12.4656197 102.921941,12.6441276 C102.921941,12.6441276 99.3564105,19.1441418 95.6691772,22.3210359 C94.8936277,22.9480706 94.167056,23.4116441 93.9348499,23.1788314 C93.5517975,22.794458 97.813272,12.6322271 97.813272,12.6322271 L95.703718,12.8848739 C95.6141277,13.1034607 94.8403323,15.0755288 94.5420128,15.8467378 C94.5420128,15.8467378 94.2919966,12.9829507 92.6834195,12.0079281 C92.2983433,11.813416 91.2977387,11.5826551 89.5105207,12.8803599 C89.2986883,13.0453259 86.807836,15.0455723 85.0573176,19.2165025 C84.9470838,19.4889835 83.1461035,24.0362167 85.0010539,25.4200977 C85.0382932,25.4473185 85.0762071,25.4735817 85.1149307,25.4982035 C85.1223515,25.5025807 85.1295026,25.5079154 85.1370584,25.5122926 C85.1489318,25.519816 85.1613449,25.5263818 85.1734881,25.5333579 C85.4340285,25.6832772 85.7544757,25.7799861 86.1464331,25.8080276 L86.1467029,25.8080276 C86.234944,25.8099426 86.3245342,25.8057022 86.4146642,25.7959903 C88.6923349,25.7959903 91.0424604,23.2562533 92.0048812,22.0858978 C91.4516882,23.9023015 91.2506498,25.8333333 92.8982203,25.8333333 L92.8984901,25.82581 C92.9237211,25.828409 92.9501664,25.8292297 92.9764768,25.8299136 C96.7340061,25.6854658 103.003841,15.1830439 103.003841,15.1830439 C103.003841,15.1830439 103.055247,15.8519357 103.10355,16.7216318 C103.107463,16.7736111 103.412394,20.7872355 102.997769,22.3426483 C102.997499,22.3437426 102.997229,22.3448369 102.996825,22.346068 C102.7715,23.3357269 102.292111,24.2413982 101.291506,24.2444075 C101.283816,24.244134 101.27626,24.244134 101.268569,24.2438604 C101.231465,24.2435868 101.194765,24.2422189 101.158605,24.2394832 C101.148621,24.2390728 101.138906,24.2382521 101.129191,24.2374314 C99.915675,24.2374314 99.2960989,21.8165629 99.2960989,21.8165629 L98.292526,24.0680882 C98.6253862,24.5588824 99.5828148,25.7404545 101.12258,25.7947592 C101.162113,25.7979053 101.184241,25.7979053 101.184241,25.7979053 L101.2316,25.7979053 C101.499426,25.7979053 101.755244,25.765897 101.997974,25.7107716 C104.211286,25.1521306 104.953644,23.0713163 105.200826,21.6189046 C105.19408,21.6241026 105.186119,21.6312155 105.179778,21.6358663 C105.558513,19.5761173 105.15873,15.3616886 104.916269,13.2450359 C104.962684,12.8471205 105.117847,12.4375782 105.226732,12.0449975 C105.40146,11.4146799 105.691549,10.8103518 105.809069,10.1723741" id="Fill-1" fill="#FFFFFF"></path>
                    <path d="M51.2687949,9.27103499 C50.7638779,8.95110946 49.972893,9.39137268 49.5022317,10.2543499 C49.0315705,11.1170485 49.0593629,12.0757108 49.5645384,12.3957757 C50.0698432,12.7154226 50.8605696,12.2751594 51.3311016,11.4124608 C51.8017628,10.5496229 51.7739704,9.59096052 51.2687949,9.27103499" id="Fill-3" fill="#FFFFFF"></path>
                    <g id="Group-7" transform="translate(0.000000, -0.000000)">
                        <mask id="mask-2" fill="white">
                            <use xlink:href="#path-1"></use>
                        </mask>
                        <g id="Clip-6"></g>
                        <path d="M84.8614784,13.1678834 C82.6770007,13.1678834 79.6623807,16.3299096 78.2109873,18.015129 C79.267914,15.3816116 79.8739829,13.1678834 78.5245273,13.1678834 C76.1440362,13.1678834 72.778734,16.921737 71.5234896,18.4288558 C72.6747629,16.1914168 74.1380851,13.5910407 74.1506918,13.5521064 L71.6064496,13.7937951 C70.5756851,15.0472352 65.7520762,20.8683756 63.5253051,22.7653758 L63.5255762,22.7656452 C63.5255762,22.7656452 63.5145962,22.7749409 63.4990073,22.7877394 C63.4039829,22.8661467 63.0486918,23.151889 62.7169873,23.3263521 C62.5064696,23.4370924 62.3065251,23.5027013 62.1917096,23.4379008 C62.0179273,23.3402284 62.096414,22.8595454 62.2072984,22.4318077 C62.2420007,22.2679875 62.3314673,21.9914062 62.4350318,21.6967723 C62.6276562,21.1475166 62.8681318,20.5368283 62.8900918,20.4809193 C62.8911762,20.4782249 62.8919896,20.476743 62.8919896,20.476743 L62.8919896,20.4768777 C63.1681162,19.846116 63.4294673,19.3671845 63.4294673,19.3671845 C63.4294673,19.3671845 65.383094,15.111901 67.1314896,11.304294 L100.645432,11.304294 L101.595134,9.26260397 L67.823094,9.82438869 C68.9042851,7.46933867 69.668954,5.723495 69.668954,5.723495 L67.0933984,6.02998426 C66.9718051,6.3219237 66.5418229,7.46004295 65.4484318,9.86386181 L60.9226384,9.93688035 L60.3801451,11.304294 L64.774314,11.304294 C63.6176184,13.7905618 62.2612496,16.5170364 61.1196007,18.2917103 C59.744254,20.3047048 58.5573296,21.908553 58.1559496,22.1922745 C58.5428251,20.1073392 58.1345318,15.8415476 57.8872784,13.6988171 C57.9343162,13.2962721 58.0929162,12.8816022 58.2042073,12.4843113 C58.3825984,11.8461401 58.6786518,11.234374 58.798754,10.5886584 C58.9314629,9.87746859 58.5197807,9.4770791 57.799574,9.58957076 C57.4328962,9.64723116 57.043174,9.84244124 56.7591851,10.0856118 C56.019594,10.7186637 55.7148651,11.6599562 55.8272407,12.5251317 C55.8528607,12.722632 55.8586896,12.9100283 55.851234,13.0908233 C55.5137007,13.865197 54.7620451,15.4489719 53.5553296,17.2658133 L52.1142384,19.2405472 C51.2577984,20.3083423 50.2534673,21.3850289 49.0959584,22.3714528 C47.3933807,23.8016463 46.0112562,24.3717836 45.6197718,24.2654891 C45.2247629,24.1583863 45.5136318,23.1937871 45.5136318,23.1937871 C46.3501451,20.5022051 50.4276562,13.2920958 50.4276562,13.2920958 L47.998094,13.5521064 C47.998094,13.5521064 47.2628407,15.1144607 45.9592029,17.0863655 C45.836254,17.2870991 45.692294,17.5076367 45.5084807,17.7688598 C45.3951562,17.9299856 45.2779007,18.0873392 45.1584762,18.2425373 C43.9604362,19.8939418 38.4006251,25.5926213 38.8142051,23.627722 C38.8255918,23.5778754 38.8375207,23.5273552 38.8514829,23.4745448 C38.854194,23.4651143 38.8562273,23.4571658 38.8586673,23.4482742 C39.3447696,21.6768337 42.6596451,16.0569657 42.6596451,16.0569657 C42.6596451,16.0569657 40.3627918,15.7479168 38.5463473,14.6399749 C38.1955296,14.4401843 38.019714,14.2154705 38.0674296,13.898473 C38.144154,13.7609233 38.2122029,13.6298402 38.2702207,13.5067056 L38.2702207,13.5068403 C38.2702207,13.5068403 38.5013429,13.0753304 38.6474718,12.4122358 C38.866394,11.3998109 38.707794,10.6531895 38.5966384,10.3041286 C38.5838962,10.2685624 38.5352318,10.1415209 38.4473918,10.0128627 C38.4473918,10.0128627 38.2122029,9.67296279 37.7824918,9.71769001 C37.6996673,9.72968014 37.6202318,9.75083127 37.5444562,9.77777538 C37.4198807,9.82654422 37.0777384,9.99305882 36.7107896,10.4401963 C36.2774184,10.9883743 35.8948807,11.6476967 35.6819229,12.3339632 C35.6813807,12.3349062 35.3385607,13.3411341 35.5141051,14.4752117 C35.5141051,14.4752117 35.523594,14.5986157 35.5794429,14.8015049 C35.6160429,14.95091 35.6621318,15.1012581 35.7208273,15.2501243 C35.7147273,15.2714102 35.7091696,15.292696 35.7018496,15.3138471 L35.7015784,15.314386 C35.6388162,15.4924866 35.5349807,15.6645247 35.3907496,15.8290185 C35.3751607,15.8469364 35.3597073,15.8651236 35.3441184,15.8829068 C35.0913073,16.2781769 34.7152762,16.8049342 34.2610296,17.3993213 C34.0166229,17.7187438 33.7479518,18.0590479 33.4638273,18.4086477 C33.3139029,18.582572 31.2175362,21.2768483 30.1520696,22.1969897 C30.0154296,22.3075953 29.8817718,22.4136204 29.7520451,22.513583 C29.7083962,22.544434 29.6703051,22.5735337 29.635874,22.6019597 C29.5331229,22.6796935 29.4436562,22.7455718 29.3639496,22.8020197 C28.5534629,23.2501003 28.3978451,22.8749036 28.4900229,22.2868483 C28.5534629,21.8809353 28.734294,21.3751943 28.9019762,20.9661827 C28.9956451,20.7554798 29.0890429,20.5432949 29.1825762,20.330167 C29.2117207,20.2687344 29.2292073,20.2331682 29.2292073,20.2331682 L29.2239207,20.2354585 C30.6297673,17.0149636 31.8959918,13.6608259 30.303214,13.6608259 C27.5567229,13.6608259 23.4031651,19.0361761 23.0467896,19.483583 L28.7534073,7.45020835 L26.2191962,7.72800213 L23.9390162,12.5504591 L23.9390162,12.5503244 C23.9390162,12.5503244 20.4812651,18.1274859 16.9047673,20.9629494 C14.8486607,22.5949542 11.5804162,24.7632816 8.73252956,24.7632816 L8.73171622,24.7632816 L8.73063178,24.7632816 C8.648214,24.7632816 8.56918511,24.7619344 8.492054,24.7599136 C1.16012511,24.6176487 2.10399844,17.9881849 3.57613178,13.5300123 C3.57626733,13.5294734 3.57653844,13.5287998 3.57680956,13.5282609 C5.04541844,9.13906523 8.96731178,5.20091397 8.96731178,5.20091397 C11.2717562,3.00281339 13.1833607,2.03296012 14.4559562,1.60468347 C14.9195562,1.45716447 18.2317207,0.529344004 19.5803629,3.6320931 C19.8425273,4.3648382 20.535894,6.86013232 19.0817896,9.67862105 C18.6928807,10.4086717 18.2378207,11.1162241 17.7517184,11.808553 C17.0800407,12.765069 16.2936829,13.690195 15.3926451,14.4800616 C14.2270029,15.5024559 12.9643029,16.4201723 11.4025673,16.9384423 C11.1242718,17.024394 10.0551451,17.3219917 9.41532289,17.0538978 C9.29955844,16.9997402 9.20236511,16.9329188 9.12252289,16.8546461 C9.11615178,16.8477754 9.10978067,16.8421171 9.10340956,16.8357852 C7.90347178,15.5881382 10.9972562,11.4262161 10.9972562,11.4262161 L8.33142067,11.6571271 C8.33142067,11.6571271 7.01761622,13.4262774 6.86904733,15.2730268 C6.84288511,15.5960867 6.85169622,15.9214368 6.91039178,16.2403204 L6.91039178,16.2404551 L6.91039178,16.2405898 C6.94956733,16.4899576 7.01476956,16.7350143 7.11264067,16.9659253 C7.21430733,17.201821 7.60199622,17.9229801 8.64563844,18.3016796 C9.16820511,18.4835524 9.89288511,18.6091119 10.8631918,18.5197922 C11.293174,18.4801843 11.7718207,18.3971965 12.3011651,18.2595121 C12.3281407,18.2526413 12.3553873,18.2459053 12.3823629,18.2387651 C12.3942918,18.2353971 12.4059496,18.2329721 12.4181496,18.2294694 L12.415574,18.2290652 C12.7028162,18.1513315 12.9887029,18.0558146 13.272014,17.9395508 C15.2067984,17.145912 16.7601296,15.9133536 18.1933584,14.5301777 C20.7470896,11.9555331 21.6109851,9.10592397 21.8709807,7.94449807 C21.9417407,7.6071578 22.0004362,7.25903988 22.0434073,6.90607203 C22.0894962,6.5191546 22.705054,0.531230092 16.5467651,0.0582262238 C16.2181784,0.0421944778 15.9061296,0.0443500067 15.6220051,0.057552621 C15.6108896,0.0572831799 15.599774,0.0571484594 15.5883873,0.0571484594 L15.5939451,0.0588998266 C15.3122607,0.0663094571 15.0315251,0.091771642 14.7520096,0.134208617 C14.3982096,0.180283047 14.1628851,0.229051887 14.1062229,0.239155929 L14.1062229,0.23929065 C10.860074,0.863855142 8.02425178,3.02369508 5.84031622,5.29454475 C4.11089844,7.14722182 0.787347333,11.3994067 0.0609051111,17.3447595 C0.0278295556,17.7513461 0.00641177778,18.168441 4.06666667e-05,18.5967176 C0.137358444,22.3011287 1.75507844,26.3975766 8.24141178,26.3975766 L8.24059844,26.396903 C10.300094,26.4855492 12.2403007,25.8480515 14.0900918,24.944346 C15.2759318,24.3649129 17.3751451,22.823575 18.3468073,22.005956 C18.3468073,22.005956 19.331754,21.1258266 20.4259584,20.0436164 L18.6055829,23.9268017 L17.5936607,26.3100083 L20.1995807,26.3100083 C20.1995807,26.3100083 20.7095407,25.0879581 21.5381918,23.5780101 C22.0878696,22.5764975 22.7773051,21.4484823 23.5520051,20.4652917 C25.3041962,18.4365349 27.4870473,16.4333749 28.2845207,16.1830642 C28.8897762,15.9931082 28.0822718,18.2865909 27.0717051,20.7383703 C27.071434,20.7390439 27.0706207,20.7411994 27.0700784,20.7422772 C27.0017584,20.907714 26.9328962,21.0738245 26.8630851,21.2400696 L26.2631162,22.6412981 C26.1251207,22.9861827 26.0044762,23.3066829 25.9350718,23.5324746 C25.6517607,24.5327747 25.5008873,25.6407166 26.0292829,26.0747862 L26.0279273,26.0750556 C26.0279273,26.0750556 26.2530851,26.3086611 26.7992384,26.3100083 L26.7995096,26.3100083 C26.8461407,26.310143 26.8956184,26.3078527 26.946994,26.30435 C26.9678696,26.3028681 26.9890162,26.3007126 27.0102984,26.2988265 C27.0239896,26.2974793 27.0370029,26.2968057 27.0509651,26.295189 C27.0637073,26.2941112 27.0772629,26.2914168 27.0898696,26.2898002 C27.1175229,26.2862975 27.1453118,26.2827947 27.1731007,26.2782142 C27.1905873,26.2755198 27.2082096,26.2721518 27.2259673,26.2687838 C29.693214,25.8246101 33.4310229,20.9808673 35.2562784,18.4737178 C36.0991629,17.3386971 36.6173918,16.5078754 36.6173918,16.5078754 C36.6504673,16.5368403 36.6855762,16.5658053 36.7208207,16.5923452 C36.7296318,16.6004284 36.7383073,16.6085117 36.7471184,16.6165949 C37.1466007,16.9430228 38.5397051,17.7733056 39.8129784,18.0714422 C39.649634,18.4501417 37.7239318,22.0894827 37.1737118,23.6905018 C36.9486896,24.4573312 36.8104229,25.5373859 37.5740073,26.0494587 C37.6970918,26.1265189 38.1875318,26.3686117 39.010354,25.9748235 C40.8829184,25.0188465 43.5934873,22.0052824 43.5934873,22.0052824 C43.529234,22.1734136 43.4653873,22.3473379 43.404794,22.5248996 C43.3740229,22.6233803 43.3378296,22.7333123 43.2981118,22.8522705 C42.9670851,23.9123866 42.778934,25.035956 43.1405962,25.7043047 C43.2223362,25.849264 43.5228629,26.2650116 44.2803473,26.2752504 C44.2970207,26.2752504 44.3134229,26.2741726 44.3300962,26.2739032 C44.3512429,26.2736337 44.372254,26.2716129 44.3934007,26.271074 C49.5942607,26.271074 54.1168007,19.4111034 55.9703873,16.1549076 C55.9892296,16.4304111 56.0133584,16.8008926 56.0365384,17.2179875 C56.0406051,17.2706632 56.3519762,21.3332963 55.9289073,22.9077754 C55.9283651,22.9089879 55.928094,22.9099309 55.9278229,22.9111434 C55.6973784,23.9129254 55.2084296,24.8296988 54.1867473,24.8327974 C54.1790207,24.8325279 54.1714296,24.8323932 54.1634318,24.8322585 C54.1256118,24.8317196 54.0879273,24.8303724 54.0511918,24.8278127 C54.0411607,24.8272738 54.0311296,24.8264655 54.021234,24.8256572 C53.9420696,24.8187864 53.8661584,24.805988 53.7920096,24.7898215 C52.6050851,24.4938405 52.2150918,22.4839445 52.2150918,22.4839445 L50.9900762,24.4399522 C50.9900762,24.4399522 52.0278896,26.3325066 54.0143207,26.4018877 C54.0548518,26.4052557 54.077354,26.4052557 54.077354,26.4052557 L54.1258829,26.4052557 C55.6172651,26.4052557 56.7559318,25.4517036 57.2878518,24.9032562 C58.3567073,23.6989892 59.3095273,22.3897748 60.3047762,21.1196295 C59.7696029,22.4724933 59.389234,23.7640592 59.3839473,24.7107406 C59.3839473,24.7107406 59.3836762,24.7290626 59.3847607,24.7608566 C59.3956051,25.0436351 59.5256029,26.4257332 61.048434,26.1017303 C61.0969629,26.0906832 61.1450851,26.079232 61.1929362,26.0662988 C61.2059496,26.0629308 61.2184207,26.0603711 61.2317051,26.0565989 C63.4084562,25.4529161 65.350154,23.0500403 65.350154,23.0500403 L69.4939518,18.4341099 L68.9225851,19.6367603 L68.7306384,20.0406525 L68.7290118,20.0438858 L68.7287407,20.0441553 L65.6714207,26.2297148 L68.1009829,26.2297148 C68.1009829,26.2297148 70.3090473,21.4552184 73.1608651,18.2972338 C74.5439384,16.8650196 75.8859384,15.7111381 76.481434,15.5205085 C77.7972718,15.0989679 72.6720518,26.2297148 72.6720518,26.2297148 L75.0614896,26.2297148 C76.9378496,21.1677247 79.1014518,18.7158106 79.1250384,18.6890012 C80.6340429,17.0794947 82.1694807,15.7283823 82.8183851,15.5205085 C84.134494,15.0989679 79.009274,26.2297148 79.009274,26.2297148 L81.8206962,26.2297148 C81.7167251,23.9476833 87.8397696,13.1678834 84.8614784,13.1678834" id="Fill-5" fill="#FFFFFF" mask="url(#mask-2)"></path>
                    </g>
                </g>
                <path d="M47.4328097,12.229037 C47.9379591,12.5488233 48.7289031,12.10856 49.19954,11.2457221 C49.6701769,10.3828842 49.6423859,9.42422186 49.1372365,9.10429633 C48.6319578,8.78451008 47.8410138,9.22477329 47.3707647,10.0876112 C46.8998693,10.9503098 46.9279188,11.9089722 47.4328097,12.229037" id="Fill-8" fill="#FFFFFF"></path>
                <g id="Group-12" transform="translate(0.868421, 0.000000)">
                    <g id="Group-5" transform="translate(0.047087, 0.164459)">
                        <mask id="mask-4" fill="white">
                            <use xlink:href="#path-3"></use>
                        </mask>
                        <g id="Clip-11"></g>
                        <path d="M65.8624746,19.5067333 C64.8394347,21.5055248 63.3275445,23.1175757 61.4411668,24.3826695 C61.2304414,24.5238069 60.9988736,24.6369333 60.7572906,24.7361218 C60.6547024,24.7727932 60.5368207,24.8174483 60.3997206,24.8726583 C60.3129673,24.903105 60.2255372,24.9321985 60.1374305,24.9607507 C58.2812337,25.4732024 59.134015,22.36561 59.2088584,22.1057983 C59.4731786,21.3213562 59.8334554,20.5812986 60.2611318,19.8735821 L60.2596431,19.8727702 C60.2596431,19.8727702 60.2701996,19.856126 60.2899594,19.8262206 C60.8024943,18.9860272 61.4094971,18.1910303 62.069824,17.4237736 C62.0983809,17.3907559 62.1289679,17.359362 62.1586075,17.3271561 C62.947914,16.4098311 63.8220792,15.5965662 64.4411272,15.5965662 C65.2603441,15.5965662 65.648095,16.8003607 65.8305342,17.818904 C65.920671,18.2415041 65.9612732,18.6773654 65.9825217,19.1174216 C65.9856345,19.1781797 65.9869879,19.2125506 65.9869879,19.2125506 C65.9911835,19.3090328 65.9110619,19.4113337 65.8624746,19.5067333 M30.0900506,19.4319021 C30.3574837,19.0352832 30.6533383,18.6636982 30.9897951,18.3210715 C31.7655676,17.4825019 32.5966945,16.8450158 33.3376844,16.3915631 C33.6932243,16.1512372 34.0682532,15.9440644 34.4784706,15.7960258 C34.4875384,15.7921016 34.4970123,15.7879067 34.5059448,15.7841178 C36.0597906,15.1291756 38.0185755,16.0919677 34.6523833,19.0647827 C32.5154901,20.9522069 30.7654004,21.506878 29.7711881,21.6610059 L29.7701053,21.6610059 C29.5304171,21.693753 29.2941123,21.7112091 29.0620032,21.7164866 C28.941144,21.7143215 28.8764511,21.7059317 28.8764511,21.7059317 C29.2028928,20.8524771 29.6216367,20.0963166 30.0900506,19.4319021 M66.6515105,24.4611543 C66.0017401,23.8396359 74.115817,7.54673144 74.115817,7.54673144 L71.4408094,7.81182064 C71.4186136,7.85498728 67.5489542,16.7998194 67.2533702,17.5290515 C67.2533702,17.5290515 67.0054262,14.8211904 65.4109782,13.8992646 C65.0293176,13.7155019 64.0375415,13.4976389 62.2662033,14.7243023 C62.0829521,14.8604328 60.1823636,16.3161906 58.5482608,19.301049 C58.4218526,19.5320379 58.2974746,19.7734463 58.175262,20.0231092 L58.1170655,20.0706061 C57.5242735,20.8956437 54.6788721,24.7568256 53.0342127,25.2355829 C53.0302878,25.2368007 53.0259569,25.2381539 53.0223027,25.2392365 C52.9741215,25.2529037 52.9276996,25.2622406 52.8816838,25.2698185 C52.8661196,25.2719836 52.8501494,25.2748253 52.8353973,25.2761785 C52.8335025,25.2764491 52.8317431,25.2763138 52.8298484,25.2765844 C52.09346,25.3359893 52.3500658,24.2238055 52.3539907,24.2068906 C52.8351266,22.4485604 55.7315515,17.5776309 55.7315515,17.5776309 C55.7315515,17.5776309 53.1589968,17.4898091 51.1977757,16.2175434 C50.8476494,16.0191662 50.6721126,15.7957552 50.7196172,15.4807334 C50.9170792,15.1279577 51.0595929,14.815507 51.1125111,14.5786994 L51.1125111,14.5784288 C51.1230676,14.5535302 51.1322708,14.5284962 51.1420153,14.5034623 C51.6411516,12.842832 51.1846476,11.5112967 50.4860193,11.5112967 C49.8518131,11.5112967 49.3667522,12.0485117 49.2527954,12.1859954 C48.86721,12.7014241 48.5319712,13.3029154 48.3380281,13.9256517 C48.3374867,13.9267343 47.9950749,14.9266036 48.1703411,16.0538078 C48.1703411,16.0538078 48.1799502,16.1766771 48.2357106,16.3783019 C48.2679216,16.5096963 48.3092005,16.6413613 48.3585999,16.7724851 C48.1999806,17.1099697 47.9927741,17.4585505 47.8336136,17.7111904 C46.5283885,19.7153946 43.0747662,24.721778 40.9026844,25.1267867 C40.4012474,25.204189 40.3163888,24.8963391 40.3311409,24.6316558 C40.6061531,22.5089125 45.437137,14.0363423 45.437137,14.0363423 L42.9782684,14.2428386 C42.9782684,14.2428386 42.3446035,15.5730207 41.2220883,17.3038813 C41.0407319,17.6416366 40.8336607,17.9902174 40.4927376,18.4785824 C40.0998438,19.0405606 39.6685132,19.565191 39.2061896,20.0635695 C37.2739314,22.3980865 34.7105798,24.6424813 31.7804551,25.0799664 C29.0971917,25.4748262 28.7484189,23.117305 28.7484189,23.117305 C28.7474715,23.1140574 28.7461181,23.1109451 28.7447647,23.1076974 C31.6304977,23.0895647 33.6413888,22.1975443 35.0209159,21.1189195 C38.5503289,18.5844015 37.8744378,15.8856068 37.8744378,15.8856068 C37.6292005,14.5103635 36.2736288,14.2686844 35.5828502,14.2363433 C35.5514511,14.2351254 35.5197814,14.2333663 35.4882471,14.232825 C35.4634797,14.2321484 35.4391184,14.2318778 35.4169226,14.2317424 C35.3368009,14.2320131 35.2569499,14.2337722 35.177911,14.2390497 C33.9123407,14.3244357 32.7209372,14.6575902 31.5782562,15.3458207 C29.9503791,16.3267455 28.7442234,17.6263456 27.7826282,19.1409671 C27.6263097,19.3988844 27.1145868,20.2875218 26.7693328,21.3898274 C26.5545473,21.325551 26.3560025,21.2565385 26.1719393,21.1868494 C25.931439,21.0826541 25.7550901,20.9720988 25.6261105,20.8669562 C26.1766762,19.288735 26.7354977,17.8559813 27.297838,16.5607114 C27.428171,16.1753239 28.255779,14.413746 28.5414831,13.9195624 C30.5475019,10.008448 32.5564983,7.70302446 34.3688447,6.49381718 C34.6537367,6.26756443 34.9746294,6.06742817 35.308244,5.91573599 C35.388095,5.88122973 35.5536166,5.81302914 35.7877559,5.73603284 C35.8163128,5.72804904 35.8451403,5.72006525 35.8736972,5.71194613 C35.9009007,5.70179723 35.9275628,5.69340747 35.9546309,5.68379985 C37.0917629,5.34144372 39.416915,4.95240265 41.457581,6.55335737 L43.7842218,5.02493344 C43.125519,4.43088465 40.6156269,2.48446146 36.642432,3.17390989 C33.7029688,3.93981334 31.3683429,5.78312373 29.5309584,8.29057796 C29.25148,8.67204118 28.9940622,9.06987795 28.7513964,9.47894617 C24.5045427,15.8381099 22.4208383,24.7332801 22.4208383,24.7332801 C19.6048058,23.7934922 19.6383702,20.1319054 20.4667903,16.5110495 C20.6052437,15.9692337 20.7443739,15.4275532 20.8883763,14.8876319 C21.21563,13.75082 21.6872921,12.4551441 22.130262,11.32158 L22.2563994,11.0100765 L19.9561501,11.32158 C19.3893435,12.8374193 18.8196948,14.3517701 18.2080904,15.8490707 C17.216991,18.0973898 14.6997906,22.8182509 10.4140941,24.6075691 L10.4127407,24.6078397 C15.0833459,15.9623324 15.8233885,10.5813871 15.5853243,7.54104806 C15.5850536,7.52873407 15.5853243,7.51669071 15.5850536,7.50437671 C15.566512,6.80532067 15.4264344,6.02791513 15.1433018,5.27852055 C14.8972525,4.57121007 14.6490378,4.25578234 14.6490378,4.25578234 L14.6490378,4.25632361 C14.6138493,4.19827192 14.577578,4.1407615 14.54063,4.08392768 C14.4927194,4.00936711 14.4430494,3.94008397 14.3936501,3.87012424 C13.93471,3.23372072 13.3331209,2.68608622 12.5681756,2.32045528 C10.9155311,1.57092538 9.17274981,2.06253797 8.59254452,2.26713974 C8.57034865,2.27525886 8.54788211,2.28297202 8.52595693,2.29109114 C8.5198666,2.29339156 8.51350559,2.29582729 8.50795662,2.29772175 C6.69033193,2.98717018 5.47808588,4.20530849 5.47808588,4.20530849 C0.282223655,9.37420955 -2.08569605,20.8960497 2.27700924,20.8960497 C2.35523612,20.8960497 2.43265097,20.8937493 2.50979513,20.889825 C4.68079421,20.7894186 6.4061166,19.2990192 7.70728144,17.5026644 C9.78570754,14.6336388 10.7816793,10.9866664 10.7816793,10.9866664 L10.8661318,10.6371383 L8.26204269,10.9866664 C8.26204269,10.9866664 7.35282432,15.7542124 4.27423095,18.5977981 L4.275043,18.5973921 C3.70566496,19.1193161 3.17702445,19.4570714 2.75963393,19.5124167 C2.70170814,19.5157997 2.64391769,19.5181001 2.58490918,19.5181001 C1.74904543,19.4554476 1.49189823,17.9839928 2.55026198,14.0866809 C4.24093716,7.86202385 6.77153631,5.26783038 8.40117286,4.20530849 C8.43257189,4.18474006 8.46275285,4.16796055 8.49361052,4.1487453 C8.58645419,4.09624167 8.68389945,4.03981381 8.78757037,3.97824383 C8.90572274,3.91491471 9.02022092,3.86024598 9.13120024,3.81193723 C9.36168533,3.7180261 11.1642872,3.04995802 12.2528319,4.61532394 C12.2593283,4.6252022 12.26596,4.6353511 12.2725917,4.64522936 C12.2873438,4.6672863 12.3019606,4.69096706 12.316442,4.71383591 C12.3508185,4.76850463 12.383571,4.823444 12.4148347,4.87824804 C12.432835,4.9105892 12.4509706,4.94211844 12.4687002,4.97594809 C12.4724898,4.98284934 12.476144,4.98961528 12.4797982,4.99651653 C12.4803395,4.99732844 12.4806102,4.99800503 12.4811516,4.99908758 C12.7373514,5.48231041 12.8737747,5.93562782 12.9210086,6.11059481 C13.1103502,6.85525324 13.2371643,7.63455324 13.2857516,8.41304132 L13.2574654,8.37745252 C13.2574654,8.37745252 13.3558581,9.28868818 13.1332227,11.0176543 C13.0241382,11.5692131 12.9421218,12.0972264 12.8705266,12.6125197 C12.2678547,15.6578655 10.8046872,20.2670887 7.31817712,26.185249 C7.10934653,26.5400545 6.89415492,26.8987842 6.67030151,27.2627913 C6.67030151,27.2627913 8.35881125,27.6985173 11.0637291,26.3573743 C11.4372693,26.1723938 11.8296218,25.9541248 12.2401099,25.6952603 C12.7161029,25.4005363 13.1673286,25.0784779 13.5924335,24.7411286 C13.5951403,24.7388282 13.5979825,24.7367984 13.60096,24.7346333 L13.6004186,24.7347686 C15.6431148,23.1104038 17.0724472,21.1371875 17.7094956,20.1643819 C17.656036,21.7614123 17.9083109,25.2185327 20.8855342,26.6361307 C21.5809143,27.0035208 22.4437109,27.232074 23.5103304,27.2530483 C23.5685269,27.26225 23.6229338,27.2649564 23.6713858,27.2561607 C24.1775597,25.3741492 24.696185,23.642206 25.2236075,22.049641 C25.75306,22.4439595 26.5460208,22.6642582 26.5460208,22.6642582 C26.4941853,23.7301631 26.7057227,25.4443795 28.3553897,26.4560216 C28.5328213,26.5630586 29.4444758,27.0676618 30.7751449,27.0585955 L30.7743328,27.0594074 C30.7815059,27.0594074 30.7886789,27.0588661 30.7957167,27.0588661 C30.8417325,27.0583248 30.8891017,27.0558891 30.9362002,27.0539946 C34.3048286,26.9626546 37.4150917,24.0574989 38.516223,22.9074258 C38.4742675,23.0217701 38.4324472,23.1373322 38.392251,23.2554653 C38.361664,23.3543833 38.3253928,23.4648033 38.2857379,23.584019 C38.1639314,23.9769843 38.0616139,24.37861 37.9989511,24.7627796 C37.9423788,25.1197501 37.7177133,27.0617078 39.4996081,27.0110986 C39.5251875,27.0096101 39.5511729,27.0086629 39.5770229,27.0069038 L39.5728274,27.0094748 C39.6429338,27.0054152 39.7065439,27.0039267 39.7663645,27.0040621 C44.6245518,26.7761855 49.2718785,18.0742503 49.2718785,18.0742503 C49.3049016,18.1028025 49.3400901,18.131896 49.3752787,18.1580125 C50.0439968,18.7723591 51.0355022,19.3976665 52.6429429,19.7466532 C52.2152665,20.4775092 51.4622313,21.7957833 51.043758,22.7081015 L51.0434873,22.7075602 C51.0434873,22.7075602 50.3279414,24.041396 50.3454004,25.320157 C50.345671,25.4370723 50.3529794,25.5504693 50.3678669,25.6599421 C50.3688143,25.6688731 50.3707091,25.6778042 50.3717918,25.6868705 C50.3770701,25.7213768 50.3809949,25.7564243 50.3876266,25.7899833 C50.3878973,25.7912012 50.3878973,25.792419 50.388168,25.7937722 L50.3884387,25.793231 C50.4516428,26.1068995 50.5842766,26.3820023 50.8066412,26.5998653 C50.9456361,26.7312597 51.2998225,26.9990553 51.8552605,26.995537 C54.0035223,26.995537 55.9596005,24.8936327 57.0674989,23.4202834 C56.8684128,24.6450524 56.9164588,25.9543954 57.7959022,26.5802441 C57.8332562,26.6059546 57.8707456,26.630718 57.9087763,26.6539928 C57.9164907,26.6585936 57.9236637,26.6633297 57.9309721,26.6675246 C57.9428821,26.6746965 57.9550628,26.6807859 57.9669727,26.6872811 C58.1339831,26.7790272 58.3288736,26.8469571 58.5482608,26.8926948 C58.6685786,26.9178641 58.7940393,26.9378913 58.9315454,26.9473636 L58.9318161,26.9473636 C59.0150506,26.9489874 59.0993678,26.9450631 59.1842264,26.9368087 C61.4999046,26.7876876 63.6537154,24.6343622 64.7844864,23.2853708 C64.2023864,25.0426185 63.9455098,26.9711796 65.6240044,26.9711796 L65.6242751,26.9637371 C65.6560801,26.9672554 65.6893739,26.9683379 65.7229384,26.9688792 L65.7210436,26.970909 C65.7345777,26.970909 65.7485178,26.9692852 65.7617811,26.9690145 C65.783165,26.9688792 65.8050901,26.9680673 65.827286,26.9664435 C67.7403258,26.8863349 70.1349077,24.6790173 70.9530418,23.8668349 L70.6532623,21.4094486 C69.4759341,22.642066 67.2122267,24.9974221 66.6515105,24.4611543" id="Fill-10" fill="#FFFFFF" mask="url(#mask-4)"></path>
                    </g>
                </g>
            </g>
        </g>
    </g>
</svg>