
<svg width="128px" height="58px" viewBox="0 0 128 58" version="1.1" xmlns="http://www.w3.org/2000/svg" xmlns:xlink="http://www.w3.org/1999/xlink">
    <!-- Generator: Sketch 52.6 (67491) - http://www.bohemiancoding.com/sketch -->
    <title>Logo Text</title>
    <desc>Created with Sketch.</desc>
    <defs>
        <polygon id="path-1" points="4.88e-05 0.056303411 121.914161 0.056303411 121.914161 31.6862745 4.88e-05 31.6862745"></polygon>
        <polygon id="path-3" points="0.0565046071 0.197350614 88.995485 0.197350614 88.995485 33.8964657 0.0565046071 33.8964657"></polygon>
    </defs>
    <g id="Working-File" stroke="none" stroke-width="1" fill="none" fill-rule="evenodd">
        <g id="Grid" transform="translate(-65.000000, -32.000000)">
            <g id="Logo-Text" transform="translate(65.000000, 30.000000)">
                <path d="M112.608655,49.5263583 C111.370043,52.0632227 109.539649,54.1091288 107.256068,55.7147974 C107.001222,55.894044 106.720794,56.037507 106.428222,56.1635705 C106.304037,56.2098594 106.161394,56.2666537 105.995274,56.3369078 C105.890033,56.3753178 105.784467,56.4120864 105.677769,56.4481983 C103.430294,57.0990341 104.463119,53.1547885 104.553303,52.825349 C104.873723,51.8293158 105.309747,50.8900768 105.827374,49.99171 L105.825431,49.9907251 C105.825431,49.9907251 105.838545,49.9698787 105.862508,49.9316328 C106.482948,48.8653454 107.217858,47.8563447 108.017046,46.8827994 C108.051533,46.8407782 108.089096,46.8008909 108.124554,46.7598546 C109.080148,45.5955725 110.138554,44.5634273 110.888036,44.5634273 C111.879736,44.5634273 112.349275,46.0912911 112.569797,47.3839348 C112.679248,47.9205255 112.728145,48.4738591 112.753727,49.032117 C112.757936,49.1092652 112.759556,49.153092 112.759556,49.153092 C112.764575,49.2757085 112.667429,49.4050549 112.608655,49.5263583 M127.812988,40.2068489 C127.969231,39.3636348 127.48512,38.8885986 126.638492,39.0223769 C126.207487,39.0906613 125.749281,39.321942 125.415423,39.610181 C124.546289,40.360653 124.188144,41.4766763 124.319939,42.5022557 C124.350378,42.7366551 124.35734,42.9587436 124.348435,43.1729531 C124.348435,43.1729531 120.069798,50.9729701 115.645118,54.785243 C114.714458,55.5376847 113.842572,56.0939729 113.563925,55.8145977 C113.104262,55.3533496 118.218032,43.1586725 118.218032,43.1586725 L115.686567,43.4618487 C115.579059,43.7241528 114.650504,46.0906345 114.292521,47.0160853 C114.292521,47.0160853 113.992501,43.5795408 112.062209,42.4095137 C111.600117,42.1760992 110.399392,41.8991862 108.25473,43.4564319 C108.000531,43.6543911 105.011508,46.0546867 102.910886,51.059803 C102.778606,51.3867803 100.617429,56.84346 102.84337,58.5041173 C102.888057,58.5367822 102.933554,58.5682981 102.980022,58.5978442 C102.988927,58.6030968 102.997508,58.6094985 103.006575,58.6147512 C103.020823,58.6237791 103.035719,58.6316581 103.050291,58.6400295 C103.362939,58.8199327 103.747476,58.9359834 104.217825,58.9696331 L104.218149,58.9696331 C104.324038,58.9719312 104.431546,58.9668427 104.539702,58.9551884 C107.272907,58.9551884 110.093058,55.9075039 111.247963,54.5030774 C110.584131,56.6827618 110.342885,59 112.31997,59 L112.320293,58.990972 C112.350571,58.9940908 112.382305,58.9950756 112.413877,58.9958964 C116.922913,58.822559 124.446714,46.2196527 124.446714,46.2196527 C124.446714,46.2196527 124.508402,47.0223228 124.566366,48.0659582 C124.571061,48.1283334 124.936978,52.9446826 124.439428,54.811178 C124.439104,54.8124911 124.438781,54.8138043 124.438295,54.8152816 C124.167905,56.0028723 123.592638,57.0896779 122.391913,57.093289 C122.382684,57.0929608 122.373617,57.0929608 122.364388,57.0926325 C122.319863,57.0923042 122.275823,57.0906627 122.232431,57.0873798 C122.22045,57.0868874 122.208792,57.0859025 122.197135,57.0849176 C120.740915,57.0849176 119.997424,54.1798754 119.997424,54.1798754 L118.793136,56.8817059 C119.192569,57.4706589 120.341483,58.8885454 122.189201,58.953711 C122.236641,58.9574864 122.263194,58.9574864 122.263194,58.9574864 L122.320025,58.9574864 C122.641416,58.9574864 122.948398,58.9190764 123.239674,58.8529259 C125.895648,58.1825568 126.786477,55.6855796 127.083097,53.9426856 C127.075001,53.9489231 127.065449,53.9574586 127.057839,53.9630396 C127.512321,51.4913408 127.032581,46.4340263 126.741628,43.8940431 C126.797325,43.4165446 126.983522,42.9250938 127.114184,42.453997 C127.323857,41.6976158 127.671964,40.9724222 127.812988,40.2068489" id="Fill-1" fill="#FFFFFF"></path>
                <path d="M62.3646591,39.125242 C61.7587587,38.7413314 60.8095768,39.2696472 60.2447833,40.3052198 C59.6799899,41.3404582 59.7133408,42.490853 60.3195514,42.8749308 C60.9259172,43.2585072 61.8747888,42.7301913 62.4394272,41.6949529 C63.0042207,40.6595475 62.9708698,39.5091526 62.3646591,39.125242" id="Fill-3" fill="#FFFFFF"></path>
                <g id="Group-7" transform="translate(0.842105, 28.000000)">
                    <mask id="mask-2" fill="white">
                        <use xlink:href="#path-1"></use>
                    </mask>
                    <g id="Clip-6"></g>
                    <path d="M101.833774,15.8014601 C99.2124008,15.8014601 95.5948568,19.5958915 93.8531848,21.6181548 C95.1214968,18.4579339 95.8487795,15.8014601 94.2294328,15.8014601 C91.3728435,15.8014601 87.3344808,20.3060844 85.8281875,22.114627 C87.2097155,19.4297002 88.9657021,16.3092488 88.9808301,16.2625277 L85.9277395,16.5525541 C84.6908221,18.0566822 78.9024915,25.0420507 76.2303661,27.3184509 L76.2306915,27.3187742 C76.2306915,27.3187742 76.2175155,27.3299291 76.1988088,27.3452872 C76.0847795,27.4393761 75.6584301,27.7822668 75.2603848,27.9916226 C75.0077635,28.1245109 74.7678301,28.2032416 74.6300515,28.1254809 C74.4215128,28.008274 74.5156968,27.4314545 74.6487581,26.9181692 C74.6904008,26.721585 74.7977608,26.3896874 74.9220381,26.0361268 C75.1531875,25.3770199 75.4417581,24.644194 75.4681101,24.5771032 C75.4694115,24.5738699 75.4703875,24.5720916 75.4703875,24.5720916 L75.4703875,24.5722532 C75.8017395,23.8153393 76.1153608,23.2406214 76.1153608,23.2406214 C76.1153608,23.2406214 78.4597128,18.1342812 80.5577875,13.5651528 L120.774518,13.5651528 L121.914161,11.1151248 L81.3877128,11.7892664 C82.6851421,8.9632064 83.6027448,6.868194 83.6027448,6.868194 L80.5120781,7.23598111 C80.3661661,7.58630844 79.8501875,8.95205154 78.5381181,11.8366342 L73.1071661,11.9242564 L72.4561741,13.5651528 L77.7291768,13.5651528 C76.3411421,16.5486742 74.7134995,19.8204437 73.3435208,21.9500523 C71.6931048,24.3656458 70.2687955,26.2902636 69.7871395,26.6307294 C70.2513901,24.128807 69.7614381,19.0098571 69.4647341,16.4385806 C69.5211795,15.9555265 69.7114995,15.4579227 69.8450488,14.9811736 C70.0591181,14.2153681 70.4143821,13.4812488 70.5585048,12.7063901 C70.7177555,11.8529623 70.2237368,11.3724949 69.3594888,11.5074849 C68.9194755,11.5766774 68.4518088,11.8109295 68.1110221,12.1027342 C67.2235128,12.8623965 66.8578381,13.9919475 66.9926888,15.030158 C67.0234328,15.2671584 67.0304275,15.4920339 67.0214808,15.7089879 C66.6164408,16.6382364 65.7144541,18.5387662 64.2663955,20.7189759 L62.5370861,23.0886566 C61.5093581,24.3700107 60.3041608,25.6620347 58.9151501,26.8457434 C56.8720568,28.5619755 55.2135075,29.2461404 54.7437261,29.118587 C54.2697155,28.9900635 54.6163581,27.8325445 54.6163581,27.8325445 C55.6201741,24.6026462 60.5131875,15.9505149 60.5131875,15.9505149 L57.5977128,16.2625277 C57.5977128,16.2625277 56.7154088,18.1373529 55.1510435,20.5036386 C55.0035048,20.7445189 54.8307528,21.009164 54.6101768,21.3226318 C54.4741875,21.5159827 54.3334808,21.704807 54.1901715,21.8910447 C52.7525235,23.8727302 46.0807501,30.7111456 46.5770461,28.3532664 C46.5907101,28.2934505 46.6050248,28.2328263 46.6217795,28.1694537 C46.6250328,28.1581372 46.6274728,28.148599 46.6304008,28.1379291 C47.2137235,26.0122004 51.1915741,19.2683589 51.1915741,19.2683589 C51.1915741,19.2683589 48.4353501,18.8975001 46.2556168,17.5679699 C45.8346355,17.3282212 45.6236568,17.0585645 45.6809155,16.6781676 C45.7729848,16.513108 45.8546435,16.3558082 45.9242648,16.2080467 L45.9242648,16.2082084 C45.9242648,16.2082084 46.2016115,15.6903965 46.3769661,14.894683 C46.6396728,13.679773 46.4493528,12.7838275 46.3159661,12.3649543 C46.3006755,12.3222748 46.2422781,12.1698251 46.1368701,12.0154353 C46.1368701,12.0154353 45.8546435,11.6075553 45.3389901,11.661228 C45.2396008,11.6756162 45.1442781,11.7009975 45.0533475,11.7333305 C44.9038568,11.7918531 44.4932861,11.9916706 44.0529475,12.5282356 C43.5329021,13.1860491 43.0738568,13.977236 42.8183075,14.8007558 C42.8176568,14.8018875 42.4062728,16.0093609 42.6169261,17.370254 C42.6169261,17.370254 42.6283128,17.5183389 42.6953315,17.7618058 C42.7392515,17.941092 42.7945581,18.1215097 42.8649928,18.3001492 C42.8576728,18.3256922 42.8510035,18.3512352 42.8422195,18.3766166 L42.8418941,18.3772632 C42.7665795,18.5909839 42.6419768,18.7974297 42.4688995,18.9948222 C42.4501928,19.0163236 42.4316488,19.0381484 42.4129421,19.0594881 C42.1095688,19.5338122 41.6583315,20.1659211 41.1132355,20.8791856 C40.8199475,21.2624925 40.4975421,21.6708575 40.1565928,22.0903773 C39.9766835,22.2990864 37.4610435,25.532218 36.1824835,26.6363877 C36.0185155,26.7691144 35.8581261,26.8963445 35.7024541,27.0162996 C35.6500755,27.0533208 35.6043661,27.0882404 35.5630488,27.1223517 C35.4397475,27.2156322 35.3323875,27.2946862 35.2367395,27.3624237 C34.2641555,27.9001204 34.0774141,27.4498843 34.1880275,26.744218 C34.2641555,26.2571224 34.4811528,25.6502332 34.6823715,25.1594193 C34.7947741,24.9065758 34.9068515,24.6519539 35.0190915,24.3962004 C35.0540648,24.3224813 35.0750488,24.2798018 35.0750488,24.2798018 L35.0687048,24.2825501 C36.7557208,20.4179563 38.2751901,16.3929911 36.3638568,16.3929911 C33.0680675,16.3929911 28.0837981,22.8434113 27.6561475,23.3802996 L34.5040888,8.94025002 L31.4630355,9.27360256 L28.7268195,15.0605509 L28.7268195,15.0603893 C28.7268195,15.0603893 24.5775181,21.7529831 20.2857208,25.1555393 C17.8183928,27.1139451 13.8964995,29.7159379 10.4790355,29.7159379 L10.4780595,29.7159379 L10.4767581,29.7159379 C10.3778568,29.7159379 10.2830221,29.7143212 10.1904648,29.7118963 C1.39215013,29.5411784 2.52479813,21.5858218 4.29135813,16.2360147 C4.2915208,16.2353681 4.29184613,16.2345597 4.29217147,16.2339131 C6.05450213,10.9668783 10.7607741,6.24109676 10.7607741,6.24109676 C13.5261075,3.60337607 15.8200328,2.43955214 17.3471475,1.92562017 C17.9034675,1.74859736 21.8780648,0.635212805 23.4964355,4.35851172 C23.8110328,5.23780584 24.6430728,8.23215878 22.8981475,11.6143453 C22.4314568,12.4904061 21.8853848,13.3394689 21.3020621,14.1702636 C20.4960488,15.3180828 19.5524195,16.428234 18.4711741,17.3760739 C17.0724035,18.6029471 15.5571635,19.7042068 13.6830808,20.3261308 C13.3491261,20.4292728 12.0661741,20.7863901 11.2983875,20.4646774 C11.1594701,20.3996882 11.0428381,20.3195025 10.9470275,20.2255754 C10.9393821,20.2173305 10.9317368,20.2105405 10.9240915,20.2029423 C9.48416613,18.7057658 13.1967075,13.7114593 13.1967075,13.7114593 L9.9977048,13.9885525 C9.9977048,13.9885525 8.42113947,16.1115329 8.2428568,18.3276322 C8.21146213,18.715304 8.22203547,19.1057242 8.29247013,19.4883845 L8.29247013,19.4885461 L8.29247013,19.4887078 C8.3394808,19.7879491 8.41772347,20.0820171 8.5351688,20.3591104 C8.6571688,20.6421852 9.12239547,21.5075762 10.3747661,21.9620155 C11.0018461,22.1802628 11.8714621,22.3309343 13.0358301,22.2237506 C13.5518088,22.1762212 14.1261848,22.0766358 14.7613981,21.9114145 C14.7937688,21.9031696 14.8264648,21.8950864 14.8588355,21.8865181 C14.8731501,21.8824765 14.8871395,21.8795665 14.9017795,21.8753633 L14.8986888,21.8748783 C15.2433795,21.7815978 15.5864435,21.6669775 15.9264168,21.5274609 C18.2481581,20.5750944 20.1121555,19.0960243 21.8320301,17.4362132 C24.8965075,14.3466398 25.9331821,10.9271088 26.2451768,9.53339768 C26.3300888,9.12858936 26.4005235,8.71084786 26.4520888,8.28728643 C26.5073955,7.82298551 27.2460648,0.63747611 19.8561181,0.0698714686 C19.4618141,0.0506333733 19.0873555,0.053220008 18.7464061,0.0690631453 C18.7330675,0.0687398159 18.7197288,0.0685781513 18.7060648,0.0685781513 L18.7127341,0.0706797919 C18.3747128,0.0795713485 18.0378301,0.11012597 17.7024115,0.16105034 C17.2778515,0.216339656 16.9954621,0.274862265 16.9274675,0.286987115 L16.9274675,0.28714878 C13.0320888,1.03662617 9.62910213,3.62843409 7.00837947,6.3534537 C4.93307813,8.57666619 0.9448168,13.679288 0.0730861333,20.8137114 C0.0333954667,21.3016154 0.00769413333,21.8021292 4.88e-05,22.3160611 C0.164830133,26.7613545 2.10609413,31.677092 9.88969413,31.677092 L9.88871813,31.6762836 C12.3601128,31.782659 14.6883608,31.0176618 16.9081101,29.9332152 C18.3311181,29.2378955 20.8501741,27.38829 22.0161688,26.4071472 C22.0161688,26.4071472 23.1981048,25.3509919 24.5111501,24.0523397 L22.3266995,28.712162 L21.1123928,31.5720099 L24.2394968,31.5720099 C24.2394968,31.5720099 24.8514488,30.1055497 25.8458301,28.2936122 C26.5054435,27.091797 27.3327661,25.7381788 28.2624061,24.5583501 C30.3650355,22.1238419 32.9844568,19.7200499 33.9414248,19.419677 C34.6677315,19.1917298 33.6987261,21.9439091 32.4860461,24.8860443 C32.4857208,24.8868527 32.4847448,24.8894393 32.4840941,24.8907326 C32.4021101,25.0892568 32.3194755,25.2885894 32.2357021,25.4880836 L31.5157395,27.1695577 C31.3501448,27.5834193 31.2053715,27.9680195 31.1220861,28.2389695 C30.7821128,29.4393297 30.6010648,30.7688599 31.2351395,31.2897434 L31.2335128,31.2900667 C31.2335128,31.2900667 31.5037021,31.5703933 32.1590861,31.5720099 L32.1594115,31.5720099 C32.2153688,31.5721716 32.2747421,31.5694233 32.3363928,31.56522 C32.3614435,31.5634417 32.3868195,31.5608551 32.4123581,31.5585918 C32.4287875,31.5569751 32.4444035,31.5561668 32.4611581,31.5542268 C32.4764488,31.5529335 32.4927155,31.5497002 32.5078435,31.5477602 C32.5410275,31.5435569 32.5743741,31.5393537 32.6077208,31.5338571 C32.6287048,31.5306238 32.6498515,31.5265822 32.6711608,31.5225405 C35.6318568,30.9895321 40.1172275,25.1770407 42.3075341,22.1684613 C43.3189955,20.8064365 43.9408701,19.8094505 43.9408701,19.8094505 C43.9805608,19.8442084 44.0226915,19.8789663 44.0649848,19.9108142 C44.0755581,19.9205141 44.0859688,19.930214 44.0965421,19.9399139 C44.5759208,20.3316274 46.2476461,21.3279667 47.7755741,21.6857306 C47.5795608,22.14017 45.2687181,26.5073793 44.6084541,28.4286022 C44.3384275,29.3487974 44.1725075,30.6448631 45.0888088,31.2593505 C45.2365101,31.3518226 45.8250381,31.6423341 46.8124248,31.1697882 C49.0595021,30.0226158 52.3121848,26.4063389 52.3121848,26.4063389 C52.2350808,26.6080964 52.1584648,26.8168054 52.0857528,27.0298795 C52.0488275,27.1480563 52.0053955,27.2799747 51.9577341,27.4227246 C51.5605021,28.6948639 51.3347208,30.0431472 51.7687155,30.8451656 C51.8668035,31.0191168 52.2274355,31.5180139 53.1364168,31.5303004 C53.1564248,31.5303004 53.1761075,31.5290071 53.1961155,31.5286838 C53.2214915,31.5283605 53.2467048,31.5259355 53.2720808,31.5252888 C59.5131128,31.5252888 64.9401608,23.293324 67.1644648,19.3858891 C67.1870755,19.7164933 67.2160301,20.1610711 67.2438461,20.661585 C67.2487261,20.7247958 67.6223715,25.5999555 67.1146888,27.4893305 C67.1140381,27.4907854 67.1137128,27.4919171 67.1133875,27.4933721 C66.8368541,28.6955105 66.2501155,29.7956386 65.0240968,29.7993569 C65.0148248,29.7990335 65.0057155,29.7988719 64.9961181,29.7987102 C64.9507341,29.7980635 64.9055128,29.7964469 64.8614301,29.7933753 C64.8493928,29.7927286 64.8373555,29.7917586 64.8254808,29.7907886 C64.7304835,29.7825437 64.6393901,29.7671856 64.5504115,29.7477858 C63.1261021,29.3926086 62.6581101,26.9807334 62.6581101,26.9807334 L61.1880915,29.3279427 C61.1880915,29.3279427 62.4334675,31.5990079 64.8171848,31.6822652 C64.8658221,31.6863068 64.8928248,31.6863068 64.8928248,31.6863068 L64.9510595,31.6863068 C66.7407181,31.6863068 68.1071181,30.5420443 68.7454221,29.8839075 C70.0280488,28.438787 71.1714328,26.8677298 72.3657315,25.3435553 C71.7235235,26.9669919 71.2670808,28.5168711 71.2607368,29.6528887 C71.2607368,29.6528887 71.2604115,29.6748751 71.2617128,29.7130279 C71.2747261,30.0523621 71.4307235,31.7108799 73.2581208,31.3220764 C73.3163555,31.3088198 73.3741021,31.2950784 73.4315235,31.2795585 C73.4471395,31.2755169 73.4621048,31.2724453 73.4780461,31.2679187 C76.0901475,30.5434993 78.4201848,27.6600483 78.4201848,27.6600483 L83.3927421,22.1209319 L82.7071021,23.5641124 L82.4767661,24.048783 L82.4748141,24.052663 L82.4744888,24.0529863 L78.8057048,31.4756578 L81.7211795,31.4756578 C81.7211795,31.4756578 84.3708568,25.746262 87.7930381,21.9566806 C89.4527261,20.2380235 91.0631261,18.8533657 91.7777208,18.6246102 C93.3567261,18.1187614 87.2064621,31.4756578 87.2064621,31.4756578 L90.0737875,31.4756578 C92.3254195,25.4012696 94.9217421,22.4589727 94.9500461,22.4268014 C96.7608515,20.4953937 98.6033768,18.8740587 99.3820621,18.6246102 C100.961393,18.1187614 94.8111288,31.4756578 94.8111288,31.4756578 L98.1848355,31.4756578 C98.0600701,28.73722 105.407723,15.8014601 101.833774,15.8014601" id="Fill-5" fill="#FFFFFF" mask="url(#mask-2)"></path>
                </g>
                <path d="M77.3193716,15.8748444 C77.9255509,16.2585879 78.8746837,15.730272 79.439448,14.6948666 C80.0042123,13.6594611 79.9708631,12.5090662 79.3646838,12.1251556 C78.7583494,11.7414121 77.8092166,12.269728 77.2449176,13.3051334 C76.6798431,14.3403718 76.7135025,15.4907666 77.3193716,15.8748444" id="Fill-8" fill="#FFFFFF"></path>
                <g id="Group-12" transform="translate(23.842105, 0.000000)">
                    <mask id="mask-4" fill="white">
                        <use xlink:href="#path-3"></use>
                    </mask>
                    <g id="Clip-11"></g>
                    <path d="M79.0914741,23.6054306 C77.8638263,26.0039804 76.049558,27.9384414 73.7859047,29.4565541 C73.5330343,29.6259189 73.2551529,29.7616705 72.9652533,29.8806968 C72.8421474,29.9247024 72.7006894,29.9782886 72.5361693,30.0445406 C72.4320653,30.0810766 72.3271493,30.1159888 72.2214212,30.1502515 C69.993985,30.7651935 71.0173226,27.0360827 71.1071347,26.7243085 C71.424319,25.782978 71.8566511,24.8949089 72.3698628,24.0456492 L72.3680763,24.0446749 C72.3680763,24.0446749 72.3807442,24.0247018 72.4044558,23.9888153 C73.0194978,22.9805833 73.7479011,22.0265869 74.5402934,21.105879 C74.5745617,21.0662577 74.6112661,21.028585 74.6468336,20.989938 C75.5940015,19.889148 76.6429996,18.91323 77.3858573,18.91323 C78.3689175,18.91323 78.8342186,20.3577835 79.0531456,21.5800355 C79.1613099,22.0871556 79.2100325,22.6101891 79.2355307,23.1382566 C79.2392661,23.2111662 79.2408901,23.2524113 79.2408901,23.2524113 C79.2459248,23.36819 79.1497788,23.490951 79.0914741,23.6054306 M36.1645653,23.5156332 C36.485485,23.0396905 36.8405106,22.5937885 37.2442588,22.1826364 C38.1751858,21.1763529 39.172538,20.4113696 40.0617259,19.8672264 C40.4883737,19.5788353 40.9384084,19.3302279 41.4306693,19.1525816 C41.4415507,19.1478725 41.4529193,19.1428387 41.4636383,19.138292 C43.3282533,18.3523613 45.6787953,19.5077118 41.6393646,23.0750898 C39.0750927,25.3399989 36.974985,26.0056042 35.7819303,26.1905577 L35.780631,26.1905577 C35.4930051,26.2298542 35.2094394,26.2508016 34.9309084,26.2571345 C34.7858774,26.2545364 34.708246,26.2444687 34.708246,26.2444687 C35.0999759,25.2203231 35.6024686,24.3129305 36.1645653,23.5156332 M80.0383172,29.5507358 C79.2585927,28.8049137 88.995485,9.25342835 88.995485,9.25342835 L85.7854759,9.57153538 C85.7588409,9.62333536 81.1152496,20.3571339 80.7605489,21.2322124 C80.7605489,21.2322124 80.4630161,17.9827791 78.5496785,16.8764681 C78.0916858,16.6559529 76.9015544,16.3945173 74.7759485,17.8665133 C74.5560471,18.02987 72.2753409,19.7767794 70.3144175,23.3586094 C70.1627277,23.6357961 70.0134741,23.9254862 69.866819,24.2250817 L69.7969832,24.2820779 C69.0856328,25.2721231 65.6711511,29.9055413 63.6975599,30.4800501 C63.69285,30.4815115 63.6876529,30.4831353 63.6832679,30.4844344 C63.6254504,30.500835 63.5697442,30.5120394 63.5145252,30.5211328 C63.4958482,30.5237309 63.4766839,30.5271409 63.4589814,30.5287648 C63.4567077,30.5290895 63.4545964,30.5289272 63.4523226,30.5292519 C62.5686566,30.6005378 62.8765836,29.2659172 62.8812934,29.2456194 C63.4586566,27.135623 66.9343664,21.2905077 66.9343664,21.2905077 C66.9343664,21.2905077 63.8473007,21.1851216 61.4938354,19.6584026 C61.0736839,19.4203501 60.8630398,19.1522568 60.9200453,18.7742307 C61.1569996,18.3508999 61.3280161,17.975959 61.3915179,17.6917899 L61.3915179,17.6914651 C61.4041858,17.6615868 61.4152296,17.6315461 61.426923,17.6015053 C62.0258865,15.608749 61.4780818,14.0109066 60.6397277,14.0109066 C59.8786803,14.0109066 59.2966073,14.6555646 59.1598591,14.8205451 C58.6971566,15.4390595 58.2948701,16.1608491 58.0621383,16.9081327 C58.0614887,16.9094317 57.6505945,18.109275 57.8609139,19.46192 C57.8609139,19.46192 57.8724449,19.6093632 57.9393573,19.8513129 C57.9780106,20.0089861 58.0275453,20.1669842 58.0868245,20.3243327 C57.8964814,20.7293143 57.6478336,21.1476112 57.4568409,21.4507791 C55.8905708,23.8558242 51.7462241,29.8634843 49.1397259,30.3494946 C48.5380015,30.4423774 48.4361712,30.0729575 48.4538737,29.7553376 C48.7838883,27.2080456 54.581069,17.0409614 54.581069,17.0409614 L51.6304266,17.2887569 C51.6304266,17.2887569 50.8700288,18.8849755 49.5230106,20.9620082 C49.3053828,21.3673146 49.0568974,21.7856115 48.6477898,22.3716494 C48.1763172,23.0460234 47.6587204,23.6755798 47.1039321,24.273634 C44.7852223,27.0750544 41.7092004,29.7683282 38.1930507,30.2933104 C34.9731347,30.7671421 34.5546073,27.9381166 34.5546073,27.9381166 C34.5534704,27.9342195 34.5518464,27.9304847 34.5502223,27.9265875 C38.0131018,27.9048283 40.4261712,26.8344038 42.0816036,25.540054 C46.3168993,22.4986324 45.5058299,19.2600787 45.5058299,19.2600787 C45.2115453,17.6097868 43.5848591,17.3197719 42.7559248,17.2809626 C42.718246,17.2795011 42.6802423,17.2773901 42.6424011,17.2767406 C42.6126803,17.2759287 42.5834467,17.2756039 42.5568117,17.2754416 C42.4606657,17.2757663 42.3648445,17.2778773 42.2699978,17.2842102 C40.7513135,17.3866735 39.3216292,17.7864588 37.950412,18.6123355 C35.9969595,19.7894452 34.5495726,21.3489654 33.3956584,23.1665111 C33.2080763,23.4760119 32.5940088,24.5423768 32.179704,25.8651435 C31.9219613,25.7880119 31.6837077,25.7051969 31.4628318,25.6215699 C31.1742314,25.4965355 30.9626128,25.3638691 30.8078372,25.237698 C31.4685161,23.3438326 32.1391018,21.6245282 32.8139102,20.0702043 C32.9703099,19.6077393 33.9634394,17.4938458 34.3062843,16.9008255 C36.7135069,12.2074882 39.1243026,9.44097997 41.2991182,7.98993123 C41.6409887,7.71842793 42.0260599,7.47826442 42.4263974,7.2962338 C42.5222186,7.2548263 42.7208445,7.17298559 43.0018117,7.08059003 C43.0360799,7.07100947 43.070673,7.06142891 43.1049412,7.05168597 C43.1375854,7.03950729 43.1695799,7.02943958 43.2020617,7.01791044 C44.5666201,6.60708307 47.3568026,6.1402338 49.8056018,8.06137946 L52.5975708,6.22727074 C51.8071274,5.51441219 48.7952569,3.17870437 44.027423,4.00604248 C40.5000672,4.92512662 37.6985161,7.13709909 35.4936547,10.1460442 C35.1582807,10.6038 34.8493792,11.0812042 34.5581803,11.572086 C29.4619558,19.2030825 26.9615106,29.8772868 26.9615106,29.8772868 C23.5822715,28.7495413 23.6225489,24.3556371 24.6166529,20.01061 C24.7827971,19.360431 24.9497533,18.7104144 25.1225562,18.0625088 C25.5152606,16.6983347 26.0812551,15.1435236 26.612819,13.7832466 L26.7641839,13.4094424 L24.0038847,13.7832466 C23.3237168,15.6022537 22.6401383,17.4194747 21.9062131,19.2162355 C20.7168938,21.9142183 17.6962533,27.5792516 12.5534175,29.7264335 L12.5517934,29.7267583 C18.1565197,19.3521495 19.0445708,12.8950151 18.7588938,9.24660829 C18.758569,9.23183149 18.7588938,9.21737946 18.758569,9.20260267 C18.736319,8.36373541 18.5682259,7.43084877 18.2284668,6.53157528 C17.9332077,5.6828027 17.63535,5.30428942 17.63535,5.30428942 L17.63535,5.30493895 C17.5931237,5.23527692 17.5495982,5.16626442 17.5052606,5.09806383 C17.4477679,5.00859115 17.3881639,4.92545138 17.3288847,4.84149971 C16.7781566,4.07781548 16.0562496,3.42065408 15.1383153,2.98189695 C13.155142,2.08246108 11.0638044,2.67239618 10.367558,2.9179183 C10.340923,2.92766124 10.3139631,2.93691704 10.2876529,2.94665998 C10.2803445,2.94942048 10.2727113,2.95234336 10.2660526,2.95461672 C8.08490292,3.78195483 6.63020766,5.2437208 6.63020766,5.2437208 C0.395172993,11.4464021 -2.44633066,25.2726103 2.78891569,25.2726103 C2.88278796,25.2726103 2.97568577,25.2698498 3.06825876,25.2651407 C5.67345766,25.144653 7.74384453,23.3561737 9.30524234,21.2005479 C11.7993536,17.7577172 12.9945197,13.3813502 12.9945197,13.3813502 L13.0958628,12.9619166 L9.97095584,13.3813502 C9.97095584,13.3813502 8.8798938,19.1024055 5.18558175,22.5147083 L5.1865562,22.5142212 C4.50330255,23.1405299 3.86893394,23.5458363 3.36806533,23.6122507 C3.29855438,23.6163102 3.22920584,23.6190707 3.15839562,23.6190707 C2.15535912,23.5438877 1.84678248,21.7781419 3.11681898,17.1013677 C5.1456292,9.63177924 8.18234818,6.51874707 10.137912,5.2437208 C10.1755909,5.21903869 10.211808,5.19890327 10.2488372,5.17584498 C10.3602496,5.11284062 10.4771839,5.04512718 10.6015891,4.97124321 C10.7433719,4.89524827 10.8807697,4.82964579 11.0139449,4.77167529 C11.290527,4.65898194 13.4536493,3.85730024 14.7599029,5.73573935 C14.7676985,5.74759326 14.7756566,5.75977193 14.7836146,5.77162585 C14.8013172,5.79809417 14.8188573,5.82651108 14.836235,5.8539537 C14.8774869,5.91955617 14.9167898,5.98548341 14.9543062,6.05124827 C14.9759066,6.09005765 14.9976693,6.12789274 15.0189449,6.16848833 C15.0234923,6.17676983 15.0278774,6.18488895 15.0322624,6.19317045 C15.032912,6.19414474 15.0332369,6.19495665 15.0338865,6.19625571 C15.3413263,6.77612311 15.5050343,7.320104 15.561715,7.53006439 C15.7889248,8.4236545 15.9411018,9.3588145 15.9994066,10.2930002 L15.9654631,10.2502936 C15.9654631,10.2502936 16.0835343,11.3437764 15.8163719,13.4185358 C15.6854704,14.0804063 15.5870507,14.7140223 15.5011365,15.3323743 C14.7779303,18.9867892 13.0221292,24.5178571 8.83831715,31.6196494 C8.58772044,32.045416 8.32949051,32.4758916 8.06086642,32.9127002 C8.06086642,32.9127002 10.0870781,33.4355713 13.3329796,31.8261998 C13.7812277,31.6042231 14.2520507,31.3423004 14.7446365,31.0316629 C15.3158281,30.6779942 15.8572989,30.2915241 16.3674248,29.8867049 C16.370673,29.8839444 16.3740836,29.8815087 16.3776566,29.8789106 L16.3770069,29.879073 C18.8282423,27.9298351 20.5434412,25.5619756 21.3078993,24.3946088 C21.2437478,26.3110454 21.5464777,30.4595899 25.1191456,32.1607075 C25.9536018,32.6015756 26.9889577,32.8758394 28.2689011,32.9010086 C28.3387369,32.9120506 28.4040252,32.9152983 28.4621675,32.9047434 C29.0695763,30.6463296 29.6919266,28.5679978 30.3248336,26.6569198 C30.9601766,27.130102 31.9117296,27.3944605 31.9117296,27.3944605 C31.849527,28.6735463 32.1033719,30.730606 34.0829723,31.9445765 C34.2958901,32.073021 35.3898755,32.6785448 36.9866785,32.6676652 L36.985704,32.6686395 C36.9943117,32.6686395 37.0029193,32.6679899 37.0113646,32.6679899 C37.0665836,32.6673404 37.1234266,32.6644175 37.1799449,32.6621442 C41.2222989,32.5525361 44.9546146,29.0663493 46.2759723,27.6862616 C46.2256255,27.8234747 46.1754412,27.9621492 46.1272058,28.103909 C46.0905015,28.2226105 46.0469759,28.3551145 45.9993901,28.4981734 C45.8532223,28.9697318 45.7304412,29.4516826 45.655246,29.9126861 C45.5873591,30.3410508 45.3177606,32.6714 47.4560343,32.610669 C47.4867296,32.6088828 47.517912,32.6077461 47.5489321,32.6056351 L47.5438974,32.6087204 C47.6280252,32.6038489 47.7043573,32.6020627 47.776142,32.6022251 C53.6059668,32.3287732 59.1827588,21.886451 59.1827588,21.886451 C59.2223865,21.9207136 59.2646128,21.9556258 59.3068391,21.9869656 C60.1093007,22.7241815 61.2991073,23.4745504 63.2280361,23.8933345 C62.7148245,24.7703616 61.8111821,26.3522905 61.3090142,27.4470724 L61.3086894,27.4464229 C61.3086894,27.4464229 60.4500343,29.0470258 60.470985,30.581539 C60.4713099,30.7218374 60.4800799,30.8579138 60.4979449,30.9892811 C60.4990818,30.9999984 60.5013555,31.0107156 60.5026547,31.0215952 C60.5089887,31.0630027 60.5136985,31.1050598 60.5216566,31.1453306 C60.5219814,31.146792 60.5219814,31.1482535 60.5223062,31.1498773 L60.522631,31.1492278 C60.5984759,31.5256301 60.7576365,31.8557534 61.0244741,32.117189 C61.1912679,32.2748623 61.6162916,32.5962169 62.2828172,32.591995 C64.8607314,32.591995 67.2080252,30.0697098 68.5375033,28.3016907 C68.2986,29.7714135 68.3562551,31.3426251 69.4115872,32.0936435 C69.456412,32.1244962 69.5013993,32.1542122 69.5470361,32.1821419 C69.5562934,32.1876629 69.5649011,32.1933463 69.5736712,32.1983802 C69.5879631,32.2069864 69.6025799,32.2142936 69.6168719,32.222088 C69.8172843,32.3321832 70.0511529,32.4136992 70.3144175,32.4685844 C70.4587989,32.4987875 70.6093518,32.5228201 70.7743591,32.5341869 L70.7746839,32.5341869 C70.8745653,32.5361355 70.975746,32.5314264 71.0775763,32.5215211 C73.8563901,32.3425757 76.4409631,29.7585853 77.7978883,28.1397955 C77.0993682,30.2484928 76.7911164,32.5627662 78.8053099,32.5627662 L78.8056347,32.5538351 C78.8438007,32.5580571 78.8837533,32.5593561 78.9240307,32.5600057 L78.9217569,32.5624414 C78.9379978,32.5624414 78.9547259,32.5604928 78.970642,32.5601681 C78.9963026,32.5600057 79.0226128,32.5590314 79.0492478,32.5570828 C81.3448956,32.4609524 84.2183938,29.8121714 85.2001547,28.8375525 L84.8404193,25.8886889 C83.4276255,27.3678298 80.7111766,30.1942571 80.0383172,29.5507358" id="Fill-10" fill="#FFFFFF" mask="url(#mask-4)"></path>
                </g>
            </g>
        </g>
    </g>
</svg>
