<?xml version="1.0" standalone="no"?>
<!DOCTYPE svg PUBLIC "-//W3C//DTD SVG 20010904//EN"
 "http://www.w3.org/TR/2001/REC-SVG-20010904/DTD/svg10.dtd">
<svg version="1.0" xmlns="http://www.w3.org/2000/svg"
 width="1024.000000pt" height="499.000000pt" viewBox="0 0 1024.000000 499.000000"
 preserveAspectRatio="xMidYMid meet">

<g transform="translate(0.000000,499.000000) scale(0.100000,-0.100000)"
fill="#000000" stroke="none">
<path d="M868 3585 l-3 -1326 -34 26 c-57 41 -126 30 -161 -27 -24 -39 -25
-69 -5 -108 31 -60 112 -78 163 -35 17 14 33 25 36 25 3 0 6 -27 6 -60 0 -53
2 -60 20 -60 16 0 19 8 22 60 l3 61 34 -26 c58 -42 135 -26 166 35 19 37 19
63 0 100 -32 61 -106 76 -168 35 l-37 -26 0 1326 c0 1318 0 1325 -20 1325 -20
0 -20 -8 -22 -1325z m-48 -1350 l34 -35 -34 -35 c-38 -39 -67 -44 -101 -17
-31 26 -31 78 0 104 34 27 63 22 101 -17z m241 17 c31 -26 31 -78 0 -104 -33
-26 -61 -22 -106 18 l-40 35 39 34 c44 39 73 44 107 17z"/>
<path d="M1126 953 c-6 -14 -5 -15 5 -6 7 7 10 15 7 18 -3 3 -9 -2 -12 -12z"/>
<path d="M760 946 c0 -2 8 -10 18 -17 15 -13 16 -12 3 4 -13 16 -21 21 -21 13z"/>
<path d="M1009 933 c-13 -16 -12 -17 4 -4 9 7 17 15 17 17 0 8 -8 3 -21 -13z"/>
<path d="M402 921 c7 -12 18 -17 27 -13 14 6 14 7 -1 10 -10 2 -18 8 -18 13 0
5 -5 9 -10 9 -6 0 -6 -7 2 -19z"/>
<path d="M670 937 c0 -2 15 -16 33 -33 l32 -29 -29 33 c-28 30 -36 37 -36 29z"/>
<path d="M1059 883 c-13 -16 -12 -17 4 -4 9 7 17 15 17 17 0 8 -8 3 -21 -13z"/>
<path d="M1353 738 c31 -24 59 -51 62 -60 4 -10 11 -18 17 -18 6 0 16 -7 23
-17 10 -14 14 -10 29 32 14 43 23 110 9 78 -8 -21 -25 -14 -18 7 4 11 2 20 -4
20 -6 0 -11 -7 -11 -15 0 -12 -5 -12 -41 0 -23 8 -60 15 -82 15 l-40 0 56 -42z"/>
<path d="M305 699 c-10 -15 3 -25 16 -12 7 7 7 13 1 17 -6 3 -14 1 -17 -5z"/>
<path d="M343 703 c4 -3 -2 -17 -14 -29 -21 -22 -21 -23 -1 -17 11 3 23 11 26
19 3 8 11 14 17 14 8 0 7 -5 -2 -17 -10 -11 -10 -14 -1 -9 6 4 12 2 12 -3 0
-6 5 -11 11 -11 8 0 8 4 1 13 -8 10 -6 16 9 26 12 7 18 15 15 18 -3 3 -12 0
-20 -6 -10 -8 -16 -9 -21 -1 -3 5 -13 10 -22 10 -9 0 -13 -3 -10 -7z"/>
<path d="M1380 681 c0 -10 28 -41 36 -41 2 0 -3 11 -12 25 -17 26 -24 31 -24
16z"/>
<path d="M1331 664 c0 -11 3 -14 6 -6 3 7 2 16 -1 19 -3 4 -6 -2 -5 -13z"/>
<path d="M327 644 c-3 -3 -3 -12 0 -19 6 -17 33 -8 33 11 0 14 -21 19 -33 8z"/>
<path d="M1310 626 c0 -14 7 -43 16 -64 9 -20 17 -46 18 -57 2 -31 29 -28 53
7 17 24 20 35 11 45 -8 11 -7 12 7 7 13 -5 16 -4 11 4 -4 7 -18 12 -32 12 -33
0 -31 18 4 23 24 4 23 4 -7 6 -20 0 -44 10 -58 23 l-23 21 0 -27z"/>
<path d="M386 614 l-19 -26 27 17 c14 10 26 21 26 26 0 16 -15 9 -34 -17z"/>
<path d="M1353 633 c9 -2 23 -2 30 0 6 3 -1 5 -18 5 -16 0 -22 -2 -12 -5z"/>
<path d="M1238 613 c12 -2 32 -2 45 0 12 2 2 4 -23 4 -25 0 -35 -2 -22 -4z"/>
<path d="M415 601 c-7 -12 12 -24 25 -16 11 7 4 25 -10 25 -5 0 -11 -4 -15 -9z"/>
<path d="M1163 603 c9 -2 23 -2 30 0 6 3 -1 5 -18 5 -16 0 -22 -2 -12 -5z"/>
<path d="M1100 596 c0 -2 7 -6 15 -10 8 -3 15 -1 15 4 0 6 -7 10 -15 10 -8 0
-15 -2 -15 -4z"/>
<path d="M393 563 c3 -12 0 -24 -7 -26 -8 -3 -8 -8 0 -16 9 -10 18 -6 40 14
20 19 23 25 10 21 -11 -4 -24 0 -33 11 -14 17 -14 17 -10 -4z"/>
<path d="M1120 553 c19 -15 52 -45 73 -68 22 -22 34 -30 28 -18 -12 23 -113
113 -127 113 -5 0 7 -12 26 -27z"/>
<path d="M758 558 c-3 -7 4 -20 14 -28 26 -21 16 -59 -29 -106 -19 -20 -32
-43 -29 -50 3 -9 -1 -14 -12 -14 -15 -1 -15 -2 -1 -10 9 -5 35 -13 58 -19 37
-8 43 -7 56 12 12 17 15 18 15 5 0 -24 65 -19 84 7 9 11 16 15 16 8 0 -6 -4
-15 -10 -18 -15 -9 -12 -25 5 -25 8 0 14 6 12 13 -1 6 6 11 16 9 20 -3 20 -2
7 32 -5 15 -6 26 0 26 14 0 41 -31 35 -41 -4 -5 1 -6 10 -3 12 5 13 10 6 17
-6 6 -11 15 -11 21 0 6 5 5 11 -1 6 -6 18 -9 25 -6 17 6 18 -9 2 -25 -19 -19
20 -15 69 8 24 10 45 15 47 11 3 -4 -4 -24 -14 -44 l-20 -37 46 22 c37 19 44
26 39 43 -4 11 -11 42 -15 69 -11 59 -16 65 -34 40 -8 -10 -18 -15 -22 -11 -5
4 -2 12 5 17 12 7 12 12 -3 34 -20 31 -32 33 -46 6 -6 -11 -15 -18 -20 -15 -4
3 -19 1 -32 -3 -28 -11 -48 -5 -48 13 0 20 -19 28 -35 15 -9 -7 -15 -8 -20 -1
-7 13 -55 11 -72 -2 -7 -5 -13 -17 -13 -27 0 -16 -3 -17 -25 -7 -13 7 -30 24
-36 40 -14 32 -26 42 -31 25z m130 -40 c-2 -6 -10 -14 -16 -16 -7 -2 -10 2 -6
12 7 18 28 22 22 4z m46 -5 c4 -9 2 -19 -3 -22 -14 -9 -32 -61 -22 -61 5 0 18
20 30 45 12 25 26 45 31 45 13 0 13 -5 -5 -43 -12 -24 -12 -28 -2 -14 20 24
30 21 25 -8 -7 -33 -2 -32 21 6 20 33 40 24 21 -10 -15 -29 -12 -39 5 -17 8
11 15 28 15 38 0 10 5 18 10 18 15 0 12 -27 -5 -60 -15 -29 -45 -41 -45 -19 0
8 -5 7 -16 -2 -14 -11 -18 -10 -30 6 -12 17 -14 17 -14 2 0 -9 -5 -17 -11 -17
-5 0 -7 -4 -4 -10 3 -5 1 -10 -5 -10 -7 0 -9 8 -4 22 6 21 5 22 -11 8 -14 -12
-19 -12 -23 -2 -3 10 -7 10 -20 0 -12 -11 -16 -11 -20 0 -3 10 -7 10 -18 2
-20 -17 -35 -2 -28 28 6 25 5 26 -8 8 -14 -18 -15 -17 -10 13 6 41 37 40 37
-2 -1 -36 11 -34 24 5 8 23 14 29 22 21 8 -8 8 -17 0 -32 -7 -12 -8 -21 -2
-21 10 0 32 56 24 63 -5 6 18 36 28 37 4 0 10 -8 13 -17z m181 0 c-4 -10 -8
-27 -9 -39 -2 -11 -6 -26 -10 -32 -4 -7 -3 -12 3 -12 5 0 12 6 14 13 4 8 6 7
6 -4 1 -16 -17 -39 -31 -39 -4 0 -8 11 -8 25 0 34 23 105 34 105 4 0 5 -8 1
-17z m26 -106 c-10 -9 -11 -8 -5 6 3 10 9 15 12 12 3 -3 0 -11 -7 -18z m-74
-9 c-3 -8 -6 -5 -6 6 -1 11 2 17 5 13 3 -3 4 -12 1 -19z m-197 -19 c0 -5 -7
-9 -15 -9 -8 0 -15 7 -15 15 0 9 6 12 15 9 8 -4 15 -10 15 -15z"/>
<path d="M1240 565 c0 -3 21 -26 48 -50 26 -25 40 -45 33 -45 -12 0 -12 -3 -3
-12 9 -9 7 -14 -6 -24 -9 -8 -12 -14 -6 -14 6 0 20 10 32 23 l22 23 -24 23
c-14 14 -22 30 -19 40 4 14 3 14 -6 1 -10 -15 -12 -13 -15 13 0 6 -6 12 -13
12 -6 0 -15 3 -19 8 -8 8 -24 10 -24 2z"/>
<path d="M699 516 c-15 -13 -30 -33 -34 -45 -9 -29 3 -61 23 -61 16 1 15 2 0
11 -28 16 -21 48 16 85 38 38 35 45 -5 10z"/>
<path d="M533 499 c-13 -35 -10 -50 8 -32 6 6 9 23 7 38 l-3 28 -12 -34z"/>
<path d="M715 489 c-14 -17 -23 -34 -21 -37 3 -3 15 7 27 22 25 31 36 28 19
-6 l-11 -23 20 24 c12 13 21 29 21 37 0 24 -27 15 -55 -17z"/>
<path d="M595 457 c-51 -53 -75 -65 -68 -34 4 20 3 21 -10 5 -8 -10 -17 -15
-20 -11 -4 3 -7 2 -7 -4 0 -11 87 -73 102 -73 5 0 11 8 14 18 4 9 11 29 17 43
l11 27 18 -22 c19 -21 19 -21 3 6 -11 18 -15 37 -10 58 4 16 3 30 -1 30 -4 0
-26 -19 -49 -43z"/>
<path d="M1261 401 c-1 -21 1 -22 17 -10 27 21 28 23 10 16 -9 -3 -19 -1 -22
6 -2 7 -5 1 -5 -12z"/>
<path d="M696 321 c-3 -5 2 -8 12 -7 10 0 16 -6 16 -16 -1 -11 5 -18 17 -18
25 0 24 15 -3 34 -26 18 -35 20 -42 7z"/>
<path d="M650 310 c0 -6 7 -10 15 -10 8 0 15 2 15 4 0 2 -7 6 -15 10 -8 3 -15
1 -15 -4z"/>
<path d="M780 285 c0 -8 5 -15 10 -15 6 0 10 7 10 15 0 8 -4 15 -10 15 -5 0
-10 -7 -10 -15z"/>
<path d="M885 270 c-3 -5 -1 -10 4 -10 6 0 11 5 11 10 0 6 -2 10 -4 10 -3 0
-8 -4 -11 -10z"/>
</g>
</svg>
