<?xml version="1.0" standalone="no"?>
<!DOCTYPE svg PUBLIC "-//W3C//DTD SVG 20010904//EN"
 "http://www.w3.org/TR/2001/REC-SVG-20010904/DTD/svg10.dtd">
<svg version="1.0" xmlns="http://www.w3.org/2000/svg"
 width="1024.000000pt" height="409.000000pt" viewBox="0 0 1024.000000 409.000000"
 preserveAspectRatio="xMidYMid meet">

<g transform="translate(0.000000,409.000000) scale(0.100000,-0.100000)"
fill="#000000" stroke="none">
<path d="M770 1806 c0 -58 -26 -90 -87 -105 -183 -46 -381 -199 -484 -371
-249 -419 -81 -964 361 -1168 259 -121 549 -104 787 44 255 159 407 450 390
744 -22 352 -245 636 -590 749 -77 26 -97 48 -97 108 l0 43 -140 0 -140 0 0
-44z m250 -227 c373 -60 628 -438 541 -801 -21 -90 -64 -188 -108 -246 -29
-39 -42 -41 -35 -6 3 19 1 25 -7 20 -6 -4 -11 -18 -11 -32 0 -17 -5 -24 -20
-24 -11 0 -23 -7 -26 -15 -4 -8 -10 -13 -14 -10 -5 3 -11 -4 -15 -14 -7 -24
-104 -103 -116 -96 -4 3 -13 -4 -19 -15 -6 -11 -16 -18 -21 -14 -6 3 -21 2
-32 -4 -37 -18 -85 -31 -91 -25 -19 19 7 43 51 47 6 1 15 5 19 9 4 4 13 7 20
7 14 0 80 42 156 98 45 34 47 36 47 89 0 63 -18 73 -20 11 -1 -24 -1 -49 0
-56 1 -6 -3 -12 -9 -12 -10 0 -14 32 -12 98 1 17 -3 32 -8 32 -6 0 -10 -26
-10 -57 0 -54 -2 -60 -35 -86 l-35 -28 0 33 c0 18 -5 40 -10 48 -7 11 -10 2
-10 -32 0 -50 -12 -67 -35 -48 -11 9 -16 7 -25 -9 -11 -22 -40 -29 -40 -10 0
8 -4 8 -12 2 -7 -5 -34 -10 -60 -11 -39 0 -48 3 -48 16 -1 15 -2 15 -15 -2
-14 -19 -35 -14 -35 9 0 7 9 34 20 60 11 25 16 43 11 40 -5 -3 -15 -21 -21
-40 -6 -19 -15 -35 -19 -35 -5 0 -6 -11 -3 -25 3 -20 0 -25 -17 -25 -11 0 -21
5 -21 10 0 6 5 10 11 10 5 0 7 5 3 12 -5 8 -11 5 -17 -10 -10 -23 -37 -31 -37
-11 0 8 -4 8 -15 -1 -21 -18 -38 -2 -30 29 6 25 6 25 -10 6 -16 -20 -16 -19
-11 5 3 14 6 31 6 38 0 9 7 11 23 6 30 -9 29 -8 18 -38 -7 -16 -7 -26 -1 -26
11 0 25 48 16 57 -3 4 2 16 11 27 16 18 16 19 1 8 -9 -8 -25 -11 -35 -8 -10 3
-23 2 -29 -2 -17 -11 -36 -78 -32 -114 2 -24 -1 -33 -12 -33 -21 0 -24 43 -6
94 14 41 14 43 -5 38 -13 -4 -28 4 -44 21 -25 26 -25 26 -25 4 0 -13 -6 -22
-15 -22 -10 0 -15 10 -15 34 0 39 -15 55 -33 36 -9 -10 -9 -14 1 -17 16 -6 16
-36 0 -30 -7 2 -14 9 -14 15 -1 7 -2 17 -3 23 0 5 -6 7 -11 4 -6 -4 -8 -11 -5
-16 4 -5 1 -9 -4 -9 -6 0 -11 14 -11 30 0 23 -4 30 -20 30 -16 0 -20 7 -20 32
0 17 -3 28 -7 24 -4 -4 -8 -24 -8 -43 0 -21 -6 -38 -13 -41 -10 -3 -13 5 -10
28 2 22 -2 35 -11 38 -10 3 -12 -2 -7 -22 3 -14 2 -26 -3 -26 -11 0 -24 36
-17 48 2 4 1 14 -5 22 -7 12 -9 9 -10 -10 -1 -14 -1 -28 0 -32 0 -5 -6 -8 -15
-8 -12 0 -15 6 -10 24 3 14 2 28 -4 31 -5 3 -10 1 -10 -5 0 -7 -7 -9 -17 -6
-9 4 -20 1 -24 -6 -13 -21 -22 -1 -21 47 0 28 -4 43 -10 39 -5 -4 -8 -19 -6
-35 8 -51 -9 -31 -27 32 -37 133 -27 294 27 424 119 284 425 454 728 404z
m-495 -998 c-3 -6 -11 -8 -17 -5 -6 4 -5 9 3 15 16 10 23 4 14 -10z m-54 -67
c3 3 5 -4 6 -15 2 -29 -14 -20 -39 21 l-22 35 25 -23 c14 -12 28 -20 30 -18z
m204 -4 c3 -5 1 -10 -4 -10 -6 0 -11 5 -11 10 0 6 2 10 4 10 3 0 8 -4 11 -10z
m45 -14 c0 -11 -19 -15 -25 -6 -3 5 1 10 9 10 9 0 16 -2 16 -4z m-197 -46 c3
-11 1 -23 -4 -26 -5 -3 -9 6 -9 20 0 31 6 34 13 6z m127 -81 c0 -4 7 -6 15 -3
8 4 15 1 15 -4 0 -6 8 -13 18 -15 10 -3 7 -5 -10 -6 -40 -2 -135 37 -140 57
-10 38 3 41 53 11 27 -17 49 -35 49 -40z m275 41 c3 -5 -1 -10 -10 -10 -9 0
-13 5 -10 10 3 6 8 10 10 10 2 0 7 -4 10 -10z m105 -94 c0 -26 -16 -36 -59
-35 -115 2 -132 33 -21 37 44 1 80 0 80 -2z m-203 -12 c-3 -3 -12 -4 -19 -1
-8 3 -5 6 6 6 11 1 17 -2 13 -5z"/>
<path d="M892 1289 c-24 -57 -27 -73 -12 -64 11 7 14 -45 10 -148 -2 -56 -8
-88 -25 -131 -7 -16 -5 -17 13 -7 29 15 37 14 21 -5 -36 -44 -130 -60 -148
-25 -8 13 -5 34 9 74 11 31 20 68 20 82 0 18 5 25 18 25 17 0 17 4 -7 54 -14
30 -29 55 -32 55 -3 1 -17 -26 -32 -59 l-26 -60 25 6 25 6 -22 -53 c-49 -123
-52 -135 -45 -162 8 -32 59 -67 98 -67 15 0 39 -5 55 -12 15 -6 39 -10 53 -8
l25 2 -27 -26 c-33 -30 -35 -49 -8 -83 11 -14 20 -21 20 -15 0 12 59 48 73 44
9 -2 8 7 -2 33 -5 12 -4 25 2 33 7 9 4 19 -12 35 -31 34 -26 38 22 17 23 -11
52 -20 65 -20 36 0 80 27 97 60 16 32 11 59 -36 166 -24 58 -24 63 4 57 19 -5
17 -1 -12 26 -18 18 -31 35 -27 38 3 4 13 -2 22 -13 12 -15 12 -12 -2 16 -9
19 -18 37 -20 38 -3 4 -54 -93 -54 -104 0 -3 6 -4 13 -1 14 4 48 -98 51 -153
1 -42 -32 -65 -70 -48 -46 21 -68 90 -72 221 -4 105 -2 117 12 111 15 -6 14 1
-4 47 -12 30 -25 58 -29 62 -4 4 -18 -15 -29 -44z m35 -26 c-3 -10 -5 -4 -5
12 0 17 2 24 5 18 2 -7 2 -21 0 -30z m-217 -386 c0 -18 -2 -19 -10 -7 -13 20
-13 43 0 35 6 -3 10 -16 10 -28z m428 -2 c-16 -35 -29 -31 -15 4 6 17 14 28
19 25 4 -3 2 -16 -4 -29z"/>
<path d="M675 730 c-3 -5 1 -10 9 -10 9 0 16 5 16 10 0 6 -4 10 -9 10 -6 0
-13 -4 -16 -10z"/>
<path d="M560 670 c0 -13 5 -18 15 -14 8 4 15 10 15 14 0 4 -7 10 -15 14 -10
4 -15 -1 -15 -14z"/>
<path d="M670 644 c0 -17 22 -14 28 4 2 7 -3 12 -12 12 -9 0 -16 -7 -16 -16z"/>
<path d="M754 626 c-8 -22 3 -33 18 -18 9 9 9 15 0 24 -9 9 -13 7 -18 -6z"/>
<path d="M698 543 c7 -3 16 -2 19 1 4 3 -2 6 -13 5 -11 0 -14 -3 -6 -6z"/>
<path d="M856 525 c-11 -9 -14 -15 -7 -15 9 0 11 -10 6 -32 -4 -22 -3 -28 3
-18 9 14 24 80 19 80 -1 0 -11 -7 -21 -15z"/>
<path d="M972 510 c-18 -29 -15 -38 4 -12 9 13 14 25 12 27 -2 2 -9 -5 -16
-15z"/>
<path d="M1127 495 c-10 -21 -16 -40 -13 -42 7 -7 38 56 34 68 -2 6 -11 -6
-21 -26z"/>
<path d="M1006 498 c-9 -12 -16 -29 -15 -38 0 -8 6 -2 13 13 7 16 19 33 27 38
9 5 10 9 2 9 -6 0 -19 -10 -27 -22z"/>
<path d="M1079 494 c-5 -15 -13 -32 -16 -38 -4 -6 0 -5 9 2 9 7 18 24 21 37 6
33 -1 32 -14 -1z"/>
<path d="M1036 485 c-3 -9 -6 -22 -5 -28 0 -7 5 -1 10 12 5 13 8 26 5 28 -2 2
-6 -3 -10 -12z"/>
</g>
</svg>
